<svg width="34" height="33" viewBox="0 0 34 33" fill="none" xmlns="http://www.w3.org/2000/svg">
<g id="Group">
<path id="Vector" d="M30.0738 3.44273L25.6731 3.44869L25.6661 0.430008L22.729 0.437385L22.7402 9.49343L25.6773 9.48606L25.6702 6.46737L30.071 6.4614L30.0989 29.0863L3.67464 29.1221L3.64669 6.49722L6.58379 6.48986L6.57677 3.47117L3.63966 3.47854C2.01782 3.47699 0.701279 4.8377 0.709581 6.50458L0.737291 29.1295C0.735704 30.7963 2.05981 32.1494 3.68166 32.1408L30.1059 32.1049C31.7278 32.1065 33.0443 30.7458 33.036 29.0789L33.0081 6.45404C33.0096 4.78716 31.6957 3.44427 30.0738 3.44273Z" fill="#7B8289"/>
<path id="Vector_2" d="M10.9944 6.48384L21.2693 6.47331L21.2625 3.45462L10.9873 3.46516L10.9803 0.456645L8.0531 0.453857L8.06428 9.5099L10.9915 9.50252L10.9944 6.48384Z" fill="#7B8289"/>
<path id="Vector_3" d="M12.4715 12.5166L6.59729 12.5242L6.60432 18.5615L12.4785 18.554L12.4715 12.5166Z" fill="#A7B2BC"/>
<path id="Vector_4" d="M19.819 12.5135L13.9448 12.521L13.9519 18.5584L19.8261 18.5508L19.819 12.5135Z" fill="#7B8289"/>
<path id="Vector_5" d="M27.1572 12.5L21.2827 12.5076L21.2897 18.5449L27.1642 18.5374L27.1572 12.5Z" fill="#A7B2BC"/>
<path id="Vector_6" d="M12.4841 20.0581L6.60986 20.0657L6.61689 26.103L12.4911 26.0955L12.4841 20.0581Z" fill="#7B8289"/>
<path id="Vector_7" d="M19.8217 20.055L13.9475 20.0625L13.9545 26.0999L19.8287 26.0923L19.8217 20.055Z" fill="#A7B2BC"/>
</g>
</svg>
