<svg width="35" height="35" viewBox="0 0 35 35" fill="none" xmlns="http://www.w3.org/2000/svg">
<path id="Vector" d="M34.7107 31.6737L32.9753 26.3056C32.7386 25.5736 32.0765 25.085 31.3249 25.0843L29.5844 25.0827L29.5963 12.5709L31.3369 12.5726C32.2961 12.5735 33.0781 11.7713 33.0791 10.7854L33.0825 7.20768C33.0832 6.46572 32.6289 5.79451 31.9567 5.52961L18.0475 0.149793C17.6521 -0.00304164 17.217 -0.00345597 16.8311 0.148635L2.91179 5.50195C2.22918 5.76556 1.78352 6.42575 1.7828 7.17788L1.77939 10.7556C1.77845 11.7415 2.55895 12.5452 3.51822 12.5461L5.25872 12.5478L5.2468 25.0595L3.5063 25.0578C2.75472 25.0571 2.09166 25.5444 1.85361 26.276L0.107977 31.6408C-0.0705534 32.1895 0.0178999 32.7893 0.343802 33.2571C0.669704 33.725 1.19357 33.9999 1.75726 34.0004L33.0569 34.0302C33.6107 34.0307 34.145 33.7568 34.4718 33.2896C34.7986 32.8224 34.8882 32.2228 34.7107 31.6737ZM26.1133 25.0794L22.6322 25.0761L22.6441 12.5643L26.1252 12.5676L26.1133 25.0794ZM19.173 12.561L19.1611 25.0728L15.68 25.0694L15.692 12.5577L19.173 12.561ZM5.26264 8.43133L17.4408 3.74721L29.6101 8.45452L29.6096 9.00341L5.26211 8.98022L5.26264 8.43133ZM8.73977 12.5511L12.2208 12.5544L12.2089 25.0661L8.72786 25.0628L8.73977 12.5511ZM4.17366 30.425L4.75883 28.6367L30.0755 28.6608L30.6572 30.4502L4.17366 30.425Z" fill="#7B8289"/>
</svg>
