<svg width="23" height="30" viewBox="0 0 23 30" fill="none" xmlns="http://www.w3.org/2000/svg">
<path id="Vector" d="M11.2799 0.170356C7.75934 0.167003 0.0541733 1.6131 0.0500602 5.93275L0.0335787 23.2419C0.0294656 27.5615 7.74175 29.0222 11.2525 29.0256C14.7632 29.0289 22.4782 27.5829 22.4823 23.2633L22.4988 5.95412C22.5029 1.63447 14.8005 0.173708 11.2799 0.170356ZM18.7553 11.5204C18.2107 12.2923 14.8965 13.6307 11.2671 13.6273C7.63774 13.6238 4.32609 12.2791 3.78291 11.5061L3.78416 10.1949C6.25547 11.2645 9.37021 11.6944 11.269 11.6962C13.1677 11.698 16.2832 11.274 18.7566 10.2092L18.7553 11.5204ZM18.7498 17.2935C18.2052 18.0654 14.891 19.4039 11.2616 19.4004C7.63224 19.397 4.32059 18.0522 3.77742 17.2792L3.77867 15.9681C6.24998 17.0376 9.36471 17.4674 11.2635 17.4693C13.1622 17.4711 16.2777 17.0472 18.7511 15.9823L18.7498 17.2935ZM11.2763 4.01227C14.6189 4.01546 17.7131 5.15677 18.5925 5.94023C17.7017 6.722 14.6053 7.85743 11.2726 7.85425C7.93992 7.85108 4.83573 6.70975 3.95633 5.9263C4.8471 5.15469 7.94357 4.0091 11.2763 4.01227ZM11.2561 25.1634C7.6762 25.16 4.37442 23.8355 3.77191 23.0624L3.77318 21.731C6.24449 22.8006 9.35922 23.2304 11.258 23.2322C13.1567 23.234 16.2722 22.8101 18.7456 21.7453L18.7443 23.0767C18.1502 23.8587 14.846 25.1668 11.2561 25.1634Z" fill="#A7B2BC"/>
</svg>
