<svg width="23" height="36" viewBox="0 0 23 36" fill="none" xmlns="http://www.w3.org/2000/svg">
<path id="Vector" d="M3.99306 6.29694C4.88385 5.51517 7.98028 4.37981 11.313 4.38298C14.6556 4.38617 17.7498 5.52742 18.6292 6.31088L22.5355 6.3146C22.5396 1.99495 14.8273 0.534172 11.3166 0.530829C7.79605 0.527477 0.090886 1.97357 0.0867728 6.29322L0.064804 29.3653C0.0606908 33.6849 7.77297 35.1458 11.2837 35.1491C11.8177 35.1496 12.4606 35.1095 13.1529 35.039L13.1566 31.1768C12.5434 31.2473 11.9302 31.2976 11.2873 31.2969C7.70742 31.2935 4.40564 29.969 3.80313 29.196L3.80439 27.8646C6.27571 28.9341 9.39044 29.364 11.2892 29.3658C11.8232 29.3663 12.4661 29.3263 13.1584 29.2558L13.1621 25.3934C12.5587 25.464 11.9357 25.5142 11.2929 25.5136C7.67337 25.5102 4.35183 24.1654 3.80865 23.3925L3.8099 22.0813C6.28121 23.1508 9.39595 23.5808 11.2947 23.5826C11.8287 23.5831 12.4716 23.5431 13.1639 23.4726L13.1676 19.6102C12.5643 19.6808 11.9412 19.731 11.2984 19.7304C7.67887 19.727 4.35734 18.3822 3.81416 17.6093L3.81541 16.2981C6.28672 17.3676 9.40145 17.7975 11.3002 17.7993C11.8342 17.7998 12.4771 17.7597 13.1694 17.6893L13.1731 13.827C12.5698 13.8976 11.9467 13.9478 11.3039 13.9472C7.68438 13.9437 4.36284 12.5989 3.81967 11.8259L3.82091 10.5148C6.29223 11.5844 9.40696 12.0142 11.3057 12.016C11.8397 12.0165 12.4826 11.9765 13.1749 11.906L13.1786 8.04374C12.5753 8.11431 11.9423 8.16452 11.3094 8.16392C7.97661 8.23189 4.88236 7.08041 3.99306 6.29694Z" fill="#7B8289"/>
</svg>
