<svg width="46" height="39" viewBox="0 0 46 39" fill="none" xmlns="http://www.w3.org/2000/svg">
<path id="Vector" d="M39.4388 0.368538L22.5677 0.352474C19.4624 0.349517 16.9382 2.93891 16.9351 6.13037L16.9168 25.391L9.42067 25.3838C2.33992 25.3771 0.16395 36.0979 0.074511 36.5552C-0.0348134 37.1243 0.1031 37.7038 0.458689 38.1513C0.814279 38.5989 1.34806 38.8535 1.91175 38.854L16.904 38.8683C17.9423 38.8693 18.7837 38.0061 18.7848 36.9389L31.9079 36.9514C35.0131 36.9544 37.5373 34.365 37.5404 31.1735L37.5569 13.8543L43.1839 13.8596C44.2223 13.8606 45.0637 12.9975 45.0647 11.9302L45.0702 6.14699C45.0633 2.96568 42.5441 0.371495 39.4388 0.368538ZM15.177 35.0145L4.40751 35.0043C5.29998 32.454 6.98425 29.2235 9.42691 29.2258L17.2296 29.2332C16.051 31.0311 15.426 33.1649 15.177 35.0145ZM24.4191 29.2502C25.2597 29.251 26.297 30.3192 26.2962 31.1831C26.2956 31.854 26.4433 32.4945 26.6603 33.1147L19.4806 33.1078C20.1747 31.1672 21.5809 29.2475 24.4191 29.2502ZM33.7923 31.1801C33.7913 32.2473 32.9499 33.1105 31.9115 33.1095C30.8731 33.1085 30.0336 32.0506 30.0344 31.1765C30.0372 28.2087 27.3104 25.3907 24.4129 25.3879L20.6747 25.3844L20.6931 6.12378C20.6941 5.05657 21.5355 4.19347 22.5739 4.19446L34.1641 4.2055C33.9559 4.81513 33.8168 5.45529 33.8162 6.13627L33.7923 31.1801ZM41.3086 10.0057L37.5605 10.0022L37.5642 6.15001C37.5652 5.08281 38.4066 4.21971 39.445 4.2207C40.4735 4.22168 41.3232 5.08638 41.3221 6.15359L41.3185 10.0057L41.3086 10.0057Z" fill="white"/>
</svg>
