<?xml version="1.0" encoding="UTF-8" standalone="no"?>
<!DOCTYPE svg PUBLIC "-//W3C//DTD SVG 1.1//EN" "http://www.w3.org/Graphics/SVG/1.1/DTD/svg11.dtd">
<svg xmlns="http://www.w3.org/2000/svg" version="1.1" viewBox="0.00 0.00 1024.00 1024.00">
<g stroke-width="2.00" fill="none" stroke-linecap="butt">
<path stroke="#174e77" vector-effect="non-scaling-stroke" d="
  M 664.26 234.54
  Q 664.35 234.96 664.10 235.15
  Q 663.78 235.40 664.11 235.64
  L 664.47 235.90
  Q 664.80 236.14 664.58 236.47
  Q 664.14 237.16 662.75 236.80
  Q 662.31 236.68 661.99 237.00
  L 661.48 237.52
  A 1.04 1.03 -67.5 0 1 660.79 237.81
  C 658.10 237.84 656.71 239.31 654.60 239.35
  Q 653.89 239.36 654.53 239.04
  Q 655.81 238.40 654.91 236.80
  Q 654.68 236.40 654.23 236.39
  Q 651.65 236.30 649.09 236.60
  A 1.23 1.09 -37.0 0 1 648.61 236.56
  Q 646.80 236.03 645.16 236.76
  Q 644.76 236.94 644.31 236.94
  Q 640.40 236.91 636.66 238.07
  C 635.37 238.48 634.60 238.22 633.30 238.22
  A 1.37 1.35 -61.8 0 0 632.53 238.46
  Q 631.67 239.05 630.78 238.46
  Q 630.51 238.27 630.18 238.26
  Q 629.25 238.23 628.71 237.43
  Q 628.42 237.01 628.02 237.33
  L 627.73 237.56"
/>
<path stroke="#17476c" vector-effect="non-scaling-stroke" d="
  M 627.73 237.56
  C 605.97 227.71 584.68 219.99 561.14 216.03
  C 498.67 205.52 435.79 218.27 382.30 250.55
  Q 375.27 254.79 363.08 263.88
  C 337.87 282.67 316.77 303.17 299.32 328.30
  C 293.20 337.12 286.94 345.68 281.95 355.22"
/>
<path stroke="#174e77" vector-effect="non-scaling-stroke" d="
  M 281.95 355.22
  L 281.33 355.26
  Q 280.87 355.29 280.74 354.85
  C 280.52 354.14 280.52 353.58 280.01 353.01
  Q 279.08 351.98 278.07 351.02
  Q 277.74 350.70 277.68 350.25
  Q 277.58 349.46 276.91 348.91
  Q 275.53 347.77 273.98 346.77
  A 0.80 0.77 58.0 0 0 273.46 346.64
  Q 272.82 346.70 272.86 346.05
  A 0.93 0.92 -72.7 0 0 272.41 345.19
  Q 270.96 344.30 269.83 342.97
  Q 269.54 342.63 269.62 342.18
  Q 269.80 341.23 269.01 341.03
  Q 268.46 340.89 268.26 340.36
  L 267.72 338.91"
/>
<path stroke="#163f62" vector-effect="non-scaling-stroke" d="
  M 627.73 237.56
  Q 646.64 246.79 652.38 250.11
  Q 676.87 264.26 699.52 286.99
  Q 717.92 305.44 722.56 311.71
  C 739.50 334.57 754.83 359.61 764.48 386.63
  C 766.63 392.65 769.35 398.64 770.85 404.75
  Q 774.38 419.19 777.15 433.79
  Q 777.91 437.79 778.67 441.79
  C 779.20 444.55 779.03 448.38 780.09 451.66
  Q 780.24 452.13 780.73 452.20
  Q 782.29 452.42 783.75 452.17
  A 1.82 1.82 0.0 0 1 784.72 452.28
  C 787.01 453.21 789.75 452.43 792.05 453.23
  Q 792.12 453.26 792.13 453.25
  Q 792.19 453.13 792.25 453.01
  A 0.13 0.13 0.0 0 1 792.48 453.00
  Q 793.27 454.34 794.40 453.61
  Q 794.72 453.40 795.11 453.43
  L 798.35 453.66
  A 0.77 0.77 0.0 0 0 799.16 452.75
  L 798.80 450.92
  A 1.02 0.99 -40.8 0 1 798.85 450.35
  Q 799.15 449.55 799.67 449.71"
/>
<path stroke="#13314e" vector-effect="non-scaling-stroke" d="
  M 783.36 583.30
  Q 782.56 583.17 782.36 582.41
  Q 782.23 581.92 781.72 581.87
  Q 781.22 581.83 781.03 582.32
  A 0.69 0.69 0.0 0 1 779.84 582.49
  Q 779.28 581.76 778.36 581.88
  Q 777.93 581.93 777.73 581.55
  Q 777.11 580.41 775.77 580.00
  Q 775.29 579.84 775.57 579.42
  L 776.19 578.52
  A 0.48 0.48 0.0 0 0 775.80 577.78
  Q 775.02 577.77 774.91 577.31
  C 774.73 576.59 776.08 575.26 775.90 573.77
  Q 775.78 572.78 774.68 571.61
  C 772.55 569.35 771.59 566.49 769.97 563.90
  Q 769.75 563.55 769.79 563.14
  Q 769.86 562.54 769.46 562.24
  C 768.87 561.79 768.39 561.32 767.64 561.15
  Q 767.30 561.08 767.09 560.80
  L 765.77 559.04
  Q 765.47 558.64 765.47 558.13
  Q 765.46 556.74 764.54 555.72
  Q 764.17 555.30 764.11 554.75
  Q 763.74 551.26 761.86 548.41
  A 0.72 0.71 -32.4 0 0 760.88 548.20
  Q 760.38 548.51 759.99 549.09
  A 0.46 0.45 61.4 0 1 759.16 548.84
  L 759.11 547.27
  A 0.19 0.15 -38.0 0 1 759.13 547.19
  Q 759.40 546.84 759.74 546.51
  Q 760.03 546.21 759.90 545.82
  Q 759.76 545.40 759.47 545.38
  Q 758.98 545.33 759.10 544.86
  Q 759.39 543.69 759.10 542.27
  Q 758.94 541.48 759.57 541.20
  A 0.43 0.42 54.3 0 1 760.04 541.28
  L 760.27 541.52
  A 0.33 0.33 0.0 0 0 760.81 541.39
  Q 761.90 538.24 759.87 535.77
  Q 759.57 535.40 759.48 534.94
  Q 759.21 533.51 758.06 532.51
  Q 758.02 532.48 758.12 532.38
  L 758.30 532.19
  A 0.11 0.10 43.2 0 0 758.29 532.03
  Q 757.91 531.74 757.56 531.96
  Q 757.32 532.12 757.12 531.91
  Q 756.62 531.43 756.89 530.76
  Q 757.58 529.14 757.01 527.63
  Q 756.79 527.02 756.52 527.62
  Q 756.14 528.51 755.58 528.46"
/>
<path stroke="#163f62" vector-effect="non-scaling-stroke" d="
  M 231.65 441.48
  Q 231.90 442.30 232.43 442.40
  Q 232.70 442.44 232.74 442.71
  Q 232.77 442.95 232.84 443.17
  Q 232.95 443.52 233.35 443.62
  Q 233.70 443.71 234.05 443.59
  Q 234.47 443.45 234.77 443.78
  Q 235.28 444.36 235.98 444.14
  Q 236.34 444.03 236.72 444.09
  Q 237.49 444.21 238.27 444.23
  Q 242.19 444.29 246.16 444.25
  Q 246.56 444.24 246.90 444.46
  L 250.35 446.65
  Q 250.80 446.93 250.91 446.41
  Q 253.89 431.66 256.75 418.49
  Q 259.39 406.28 268.23 383.50
  C 272.42 372.68 277.21 364.65 281.95 355.22"
/>
<path stroke="#137ebb" vector-effect="non-scaling-stroke" d="
  M 610.75 302.07
  L 608.87 304.63
  Q 608.60 304.99 608.73 305.41
  Q 609.33 307.49 607.72 309.09
  A 1.38 1.28 -14.3 0 0 607.41 309.57
  Q 606.80 311.23 606.38 312.98
  C 605.83 315.29 604.40 316.46 604.28 319.17
  Q 604.26 319.72 603.73 319.87
  Q 602.78 320.14 601.41 319.99"
/>
<path stroke="#14608f" vector-effect="non-scaling-stroke" d="
  M 601.41 319.99
  Q 583.32 312.05 568.25 308.26
  C 546.09 302.68 519.43 301.63 496.26 306.78
  C 457.47 315.39 427.42 335.25 402.52 365.55"
/>
<path stroke="#137ebb" vector-effect="non-scaling-stroke" d="
  M 402.52 365.55
  Q 402.02 365.59 401.55 365.83
  Q 401.44 365.88 401.49 365.99
  Q 401.56 366.13 401.63 366.28
  A 0.17 0.17 0.0 0 1 401.41 366.52
  Q 400.65 366.20 400.26 365.29
  A 0.59 0.58 64.7 0 0 399.47 365.00
  Q 398.71 365.38 398.08 364.84
  A 1.06 1.05 -30.1 0 0 397.21 364.61
  Q 394.55 365.12 391.98 364.20
  Q 391.46 364.01 391.00 364.33
  Q 390.13 364.92 389.48 364.66
  Q 386.64 363.51 383.67 364.14
  A 1.27 1.23 54.5 0 1 382.73 363.97
  Q 381.56 363.23 380.40 364.09
  Q 380.23 364.22 380.07 364.07
  Q 379.97 363.97 379.87 363.87
  Q 379.51 363.49 379.88 363.12
  L 380.11 362.89
  Q 380.22 362.78 380.10 362.67
  Q 379.43 362.05 379.23 361.28"
/>
<path stroke="#145e8f" vector-effect="non-scaling-stroke" d="
  M 703.38 400.33
  Q 696.14 401.92 689.76 405.26
  Q 687.99 406.20 683.56 406.06"
/>
<path stroke="#145784" vector-effect="non-scaling-stroke" d="
  M 683.56 406.06
  Q 676.30 389.19 665.54 374.49
  C 655.55 360.82 644.53 348.59 630.96 338.54
  Q 616.96 328.15 601.41 319.99"
/>
<path stroke="#163f62" vector-effect="non-scaling-stroke" d="
  M 683.56 406.06
  C 686.90 414.67 688.52 419.12 689.99 426.31"
/>
<path stroke="#13314e" vector-effect="non-scaling-stroke" d="
  M 689.99 426.31
  Q 689.57 425.53 689.22 425.36
  A 0.28 0.28 0.0 0 0 688.82 425.64
  C 689.10 428.72 690.47 431.73 690.98 434.36
  C 691.89 439.12 692.93 443.78 693.44 448.59
  Q 694.12 454.92 694.80 461.25
  Q 695.67 469.36 694.70 481.94"
/>
<path stroke="#17476c" vector-effect="non-scaling-stroke" d="
  M 694.70 481.94
  L 693.66 476.47
  Q 693.61 476.18 693.31 476.19
  L 686.97 476.41
  Q 686.52 476.43 686.12 476.62
  Q 685.47 476.93 684.42 477.18
  Q 683.78 477.33 683.58 478.03
  Q 683.43 478.54 682.92 478.71
  Q 682.04 479.00 681.09 479.00
  Q 680.63 478.99 680.21 479.17
  L 674.71 481.47
  Q 674.36 481.61 674.18 481.94
  Q 673.57 482.97 673.88 484.21
  Q 674.00 484.74 673.47 484.61
  L 672.97 484.49
  A 0.19 0.18 9.6 0 1 672.83 484.30
  Q 673.07 482.25 672.62 480.44"
/>
<path stroke="#70899e" vector-effect="non-scaling-stroke" d="
  M 672.62 480.44
  Q 673.33 462.33 669.45 442.51
  C 665.01 419.81 655.37 400.78 642.77 382.45
  Q 642.16 381.56 642.16 382.64
  L 641.93 436.71"
/>
<path stroke="#8598a8" vector-effect="non-scaling-stroke" d="
  M 641.93 436.71
  L 642.47 459.38
  A 1.19 1.18 89.0 0 1 641.30 460.60
  L 632.02 460.66
  Q 631.20 460.67 631.21 461.48
  L 631.38 496.35
  A 3.07 3.07 0.0 0 1 628.63 499.41
  L 627.95 499.48
  Q 624.03 499.89 624.03 495.95
  L 624.05 461.34
  Q 624.05 460.75 623.46 460.75
  L 613.26 460.76
  Q 612.73 460.76 612.72 460.22
  L 612.69 404.21"
/>
<path stroke="#70899e" vector-effect="non-scaling-stroke" d="
  M 612.69 404.21
  L 612.53 356.56
  A 1.97 1.96 19.7 0 0 611.81 355.04
  Q 606.24 350.44 599.84 346.86
  Q 565.11 327.45 525.73 328.06
  C 494.67 328.55 461.23 342.16 438.59 363.47
  C 421.68 379.38 406.29 400.33 398.71 422.24
  Q 396.55 428.47 393.01 441.52"
/>
<path stroke="#145784" vector-effect="non-scaling-stroke" d="
  M 396.74 520.28
  C 397.01 522.00 396.94 523.52 397.62 525.15
  Q 398.72 527.79 399.55 530.56"
/>
<path stroke="#70899e" vector-effect="non-scaling-stroke" d="
  M 399.55 530.56
  Q 407.09 548.58 419.15 564.00"
/>
<path stroke="#17476c" vector-effect="non-scaling-stroke" d="
  M 419.15 564.00
  Q 418.82 565.46 418.10 565.46
  Q 417.76 565.46 417.79 565.80
  Q 417.91 566.99 417.08 567.91
  Q 416.74 568.29 416.66 568.79
  C 415.82 573.59 413.93 576.13 411.32 580.09
  C 410.17 581.83 407.72 583.06 408.18 586.07"
/>
<path stroke="#13314e" vector-effect="non-scaling-stroke" d="
  M 408.18 586.07
  Q 402.71 580.65 398.16 574.44
  C 397.03 572.90 395.47 571.75 394.11 570.01
  Q 392.24 567.61 386.15 561.91"
/>
<path stroke="#145784" vector-effect="non-scaling-stroke" d="
  M 386.15 561.91
  Q 387.93 561.06 387.32 560.15
  C 383.48 554.32 380.23 548.31 377.55 541.62
  C 365.25 510.90 360.48 479.80 366.20 446.75
  C 371.55 415.84 382.90 390.02 402.52 365.55"
/>
<path stroke="#114f7a" vector-effect="non-scaling-stroke" d="
  M 386.15 561.91
  L 370.15 572.76"
/>
<path stroke="#133859" vector-effect="non-scaling-stroke" d="
  M 717.19 469.45
  Q 716.66 469.92 716.87 470.90
  Q 716.89 471.01 716.93 470.90
  Q 717.00 470.71 716.78 470.54
  Q 716.55 470.36 716.27 470.44
  Q 714.49 470.90 713.27 472.23
  Q 712.88 472.64 712.32 472.64
  L 704.49 472.63
  Q 704.07 472.63 704.10 472.21
  Q 704.12 471.90 703.89 471.66
  A 0.21 0.21 0.0 0 0 703.55 471.72
  Q 703.48 471.88 703.41 472.04
  Q 703.30 472.36 702.97 472.27
  L 697.86 471.01
  Q 697.38 470.90 697.34 470.42
  C 695.95 455.27 694.86 442.21 689.99 426.31"
/>
<path stroke="#dfe9ef" vector-effect="non-scaling-stroke" d="
  M 612.69 404.21
  L 612.42 399.75
  Q 612.39 399.20 611.84 399.23
  Q 611.50 399.25 611.15 399.47
  A 1.09 1.08 55.5 0 1 609.68 399.19
  Q 604.90 392.58 599.13 388.11
  C 586.11 378.02 571.43 370.83 555.43 366.92
  C 535.30 362.00 514.14 363.25 493.51 368.16
  Q 492.00 368.52 488.91 369.79
  Q 488.47 369.97 488.08 370.27
  L 486.50 371.49
  A 0.29 0.28 87.5 0 1 486.09 371.11
  L 486.84 369.92
  Q 487.11 369.50 487.14 369.00
  C 487.61 361.85 480.18 355.54 473.59 357.82
  Q 470.69 358.83 465.10 364.20
  Q 457.68 371.32 455.14 373.65
  C 436.38 390.84 422.25 413.38 417.11 438.27
  Q 416.39 441.78 415.31 445.25"
/>
<path stroke="#70899e" vector-effect="non-scaling-stroke" d="
  M 415.31 445.25
  L 401.90 445.57"
/>
<path stroke="#7198b3" vector-effect="non-scaling-stroke" d="
  M 419.15 564.00
  C 430.60 578.25 443.48 588.79 458.91 598.56"
/>
<path stroke="#7198b3" vector-effect="non-scaling-stroke" d="
  M 466.41 602.27
  Q 476.34 607.27 486.98 610.58
  Q 494.44 612.90 504.07 615.01"
/>
<path stroke="#7198b3" vector-effect="non-scaling-stroke" d="
  M 672.62 480.44
  Q 672.29 491.78 668.89 505.94
  C 665.14 521.51 660.49 535.17 652.15 548.57
  C 626.44 589.89 583.44 614.36 534.53 615.97"
/>
<path stroke="#70899e" vector-effect="non-scaling-stroke" d="
  M 534.53 615.97
  Q 534.36 616.05 534.22 616.03
  Q 533.82 615.98 533.82 615.58
  L 533.84 593.00"
/>
<path stroke="#dfe9ef" vector-effect="non-scaling-stroke" d="
  M 641.93 436.71
  L 642.00 426.78
  A 0.91 0.91 0.0 0 1 642.73 425.89
  Q 643.48 425.74 643.60 426.53
  Q 643.72 427.41 643.74 427.46
  C 646.97 439.61 650.53 451.59 650.94 464.25
  Q 651.42 478.98 649.17 493.52
  C 644.16 525.95 626.72 555.52 599.01 573.79
  C 590.81 579.20 580.53 583.26 571.25 586.44
  Q 553.57 592.49 533.84 593.00"
/>
<path stroke="#8598a8" vector-effect="non-scaling-stroke" d="
  M 533.84 593.00
  L 533.77 440.30
  A 1.04 1.04 0.0 0 0 532.72 439.26
  L 504.75 439.50
  A 0.59 0.59 0.0 0 0 504.16 440.09
  L 504.21 591.04"
/>
<path stroke="#dfe9ef" vector-effect="non-scaling-stroke" d="
  M 504.21 591.04
  Q 491.72 586.74 486.14 584.58
  Q 477.47 581.24 466.79 575.13"
/>
<path stroke="#8598a8" vector-effect="non-scaling-stroke" d="
  M 466.79 575.13
  L 466.78 569.01
  A 0.72 0.72 0.0 0 1 467.50 568.29
  L 477.21 568.31
  A 0.27 0.27 0.0 0 0 477.48 568.04
  L 477.52 424.48
  A 0.54 0.54 0.0 0 0 476.98 423.94
  L 466.97 423.96
  Q 466.47 423.96 466.48 423.47
  L 466.97 388.79
  Q 467.00 386.58 465.51 388.22
  L 460.09 394.23
  Q 458.51 395.98 458.55 398.34
  L 458.91 423.56
  A 0.47 0.47 0.0 0 1 458.44 424.03
  L 447.76 424.00
  A 0.54 0.54 0.0 0 0 447.22 424.54
  L 447.16 533.61"
/>
<path stroke="#dfe9ef" vector-effect="non-scaling-stroke" d="
  M 447.16 533.61
  Q 439.83 523.52 434.99 513.01
  C 433.87 510.60 433.43 507.79 432.36 505.15"
/>
<path stroke="#83b6d5" vector-effect="non-scaling-stroke" d="
  M 432.36 505.15
  L 431.62 503.02"
/>
<path stroke="#8598a8" vector-effect="non-scaling-stroke" d="
  M 430.71 493.41
  Q 429.88 469.39 430.55 445.54
  A 0.49 0.49 0.0 0 0 430.05 445.03
  L 415.31 445.25"
/>
<path stroke="#13314e" vector-effect="non-scaling-stroke" d="
  M 207.83 769.21
  Q 215.00 771.40 221.89 769.98
  C 223.96 769.56 226.82 769.89 228.49 769.21
  Q 231.23 768.09 232.75 769.49
  C 237.13 773.52 240.25 776.39 246.37 776.51
  C 256.64 776.71 261.71 767.78 268.21 761.30
  Q 270.39 759.13 273.83 755.58
  C 288.72 740.24 309.18 720.51 328.09 700.95
  Q 342.42 686.12 356.80 670.61
  Q 357.36 670.01 356.82 669.39
  L 350.54 662.26
  A 0.89 0.89 0.0 0 1 350.49 661.16
  Q 350.80 660.72 350.82 660.36"
/>
<path stroke="#114f7a" vector-effect="non-scaling-stroke" d="
  M 350.82 660.36
  Q 358.75 653.46 365.83 645.22"
/>
<path stroke="#114f7a" vector-effect="non-scaling-stroke" d="
  M 355.01 633.94
  Q 351.46 631.18 347.19 626.31
  Q 345.93 624.88 340.81 621.42
  Q 340.39 621.13 340.25 620.01"
/>
<path stroke="#6d8294" vector-effect="non-scaling-stroke" d="
  M 340.25 620.01
  Q 340.81 619.42 341.14 618.53"
/>
<path stroke="#144063" vector-effect="non-scaling-stroke" d="
  M 408.18 586.07
  C 419.67 598.48 433.13 608.42 447.69 616.83
  Q 460.31 624.12 474.25 628.75
  C 488.30 633.43 498.58 636.47 512.49 637.55
  C 532.39 639.10 552.45 637.57 571.70 632.31
  Q 595.18 625.90 614.00 615.26
  Q 647.33 596.42 669.56 562.31
  Q 679.04 547.76 685.49 528.45
  C 687.22 523.25 688.61 517.23 690.11 511.58
  Q 691.97 504.57 692.78 498.77
  Q 693.95 490.40 694.70 481.94"
/>
<path stroke="#1275b0" vector-effect="non-scaling-stroke" d="
  M 406.89 509.57
  Q 407.41 509.31 408.97 510.54"
/>
<path stroke="#6ea8ca" vector-effect="non-scaling-stroke" d="
  M 413.45 511.03
  Q 414.12 514.40 413.41 517.63
  Q 413.30 518.09 413.38 518.56
  Q 413.47 519.06 413.38 519.44
  Q 413.26 519.93 412.82 520.17
  Q 411.81 520.72 411.88 521.76
  Q 411.90 522.12 411.60 522.32
  Q 411.48 522.41 411.37 522.51
  Q 411.16 522.70 411.08 523.06
  Q 410.71 524.79 410.62 526.55
  Q 410.61 526.76 410.52 526.93
  Q 410.37 527.25 410.33 527.29
  A 0.94 0.90 62.9 0 1 408.77 526.75
  L 407.94 521.36
  Q 407.86 520.90 407.41 520.77
  Q 405.03 520.07 404.61 518.25
  Q 404.10 516.09 403.17 514.08
  C 402.74 513.13 402.86 512.47 402.81 511.47
  Q 402.80 511.14 402.46 511.14
  L 402.00 511.14
  Q 401.64 511.14 401.64 511.50
  L 401.64 512.50
  Q 401.64 513.01 401.24 513.33
  C 398.11 515.79 399.10 519.40 399.13 522.97
  A 0.23 0.23 0.0 0 0 399.23 523.16
  Q 399.74 523.55 399.62 523.07
  Q 399.60 522.98 399.65 523.05
  Q 400.66 524.61 400.94 526.42
  Q 401.02 526.91 400.65 527.24
  Q 399.78 527.99 400.15 529.00
  Q 400.42 529.74 401.43 529.59
  Q 402.07 529.49 401.66 530.00
  Q 400.96 530.88 400.87 532.02
  A 0.01 0.00 -38.0 0 0 400.88 532.02
  Q 401.05 531.15 400.75 530.28
  Q 400.54 529.70 400.01 530.01
  Q 399.76 530.15 399.55 530.56"
/>
<path stroke="#70899e" vector-effect="non-scaling-stroke" d="
  M 422.40 505.04
  L 422.37 524.96
  Q 422.37 528.85 418.50 528.49
  L 417.79 528.42
  A 3.05 3.05 0.0 0 1 415.02 525.47
  L 414.47 507.50"
/>
<path stroke="#17476c" vector-effect="non-scaling-stroke" d="
  M 534.53 615.97
  Q 535.02 616.54 534.74 616.70
  Q 533.92 617.15 533.00 617.17
  Q 520.31 617.48 507.72 615.93
  C 506.65 615.80 505.43 616.10 504.26 615.85
  Q 503.82 615.76 503.94 615.33
  Q 503.98 615.18 504.07 615.01"
/>
<path stroke="#70899e" vector-effect="non-scaling-stroke" d="
  M 504.07 615.01
  Q 504.19 614.97 504.31 614.82
  A 0.35 0.34 -25.1 0 0 504.40 614.59
  L 504.21 591.04"
/>
<path stroke="#70899e" vector-effect="non-scaling-stroke" d="
  M 466.79 575.13
  L 466.41 602.27"
/>
<path stroke="#17476c" vector-effect="non-scaling-stroke" d="
  M 466.41 602.27
  Q 461.86 601.06 458.91 598.56"
/>
<path stroke="#70899e" vector-effect="non-scaling-stroke" d="
  M 458.91 598.56
  L 458.66 568.86
  A 0.62 0.62 0.0 0 0 458.04 568.25
  L 448.24 568.33
  A 0.83 0.83 0.0 0 1 447.40 567.50
  L 447.16 533.61"
/>
<path stroke="#6ea8ca" vector-effect="non-scaling-stroke" d="
  M 432.36 505.15
  Q 432.70 510.36 429.91 514.60
  Q 429.58 515.09 429.01 514.97
  Q 427.85 514.74 426.82 514.04
  A 1.14 1.11 -33.9 0 0 425.94 513.88
  Q 424.47 514.22 423.65 513.13
  Q 423.57 513.02 423.69 512.96
  Q 423.87 512.88 423.83 512.78
  Q 422.70 510.11 422.79 506.98"
/>
<path stroke="#6ea8ca" vector-effect="non-scaling-stroke" d="
  M 340.25 620.01
  Q 338.91 620.01 338.02 619.38"
/>
<path stroke="#145784" vector-effect="non-scaling-stroke" d="
  M 350.82 660.36
  L 334.85 643.66
  A 1.13 1.12 -44.1 0 0 333.24 643.64
  C 311.42 665.10 290.11 687.16 268.28 708.78
  Q 251.76 725.13 235.43 741.68
  Q 230.26 746.92 228.09 753.29
  Q 227.91 753.82 227.36 753.87
  L 224.51 754.12
  Q 224.13 754.16 224.10 754.54
  Q 224.08 754.83 223.74 754.81
  Q 215.43 754.48 206.36 751.40"
/>
<path stroke="#8598a8" vector-effect="non-scaling-stroke" d="
  M 573.99 568.74
  C 574.30 572.61 573.00 578.54 575.74 580.74
  C 578.40 582.88 581.58 580.64 581.65 577.25
  Q 581.74 573.09 581.78 569.15
  A 0.59 0.58 89.0 0 1 582.33 568.57
  L 592.61 567.85
  A 0.32 0.32 0.0 0 0 592.91 567.53
  L 592.85 465.95
  Q 592.85 465.05 591.95 465.06
  L 581.95 465.09
  Q 581.32 465.09 581.32 464.45
  L 581.48 440.76
  A 2.62 2.62 0.0 0 0 578.81 438.12
  L 577.85 438.14
  Q 574.27 438.20 574.25 441.78
  L 574.13 464.43
  A 0.56 0.56 0.0 0 1 573.57 464.99
  L 562.30 465.00
  A 0.70 0.70 0.0 0 0 561.60 465.70
  L 561.66 568.08
  A 0.17 0.17 0.0 0 0 561.83 568.25
  L 573.48 568.27
  Q 573.95 568.27 573.99 568.74"
/>
<path stroke="#6ea8ca" vector-effect="non-scaling-stroke" d="
  M 402.4768 534.2989
  A 1.48 0.63 87.8 0 0 403.0495 532.7958
  A 1.48 0.63 87.8 0 0 402.3632 531.3411
  A 1.48 0.63 87.8 0 0 401.7905 532.8442
  A 1.48 0.63 87.8 0 0 402.4768 534.2989"
/>
</g>
<path fill="#185681" d="
  M 664.26 234.54
  Q 664.35 234.96 664.10 235.15
  Q 663.78 235.40 664.11 235.64
  L 664.47 235.90
  Q 664.80 236.14 664.58 236.47
  Q 664.14 237.16 662.75 236.80
  Q 662.31 236.68 661.99 237.00
  L 661.48 237.52
  A 1.04 1.03 -67.5 0 1 660.79 237.81
  C 658.10 237.84 656.71 239.31 654.60 239.35
  Q 653.89 239.36 654.53 239.04
  Q 655.81 238.40 654.91 236.80
  Q 654.68 236.40 654.23 236.39
  Q 651.65 236.30 649.09 236.60
  A 1.23 1.09 -37.0 0 1 648.61 236.56
  Q 646.80 236.03 645.16 236.76
  Q 644.76 236.94 644.31 236.94
  Q 640.40 236.91 636.66 238.07
  C 635.37 238.48 634.60 238.22 633.30 238.22
  A 1.37 1.35 -61.8 0 0 632.53 238.46
  Q 631.67 239.05 630.78 238.46
  Q 630.51 238.27 630.18 238.26
  Q 629.25 238.23 628.71 237.43
  Q 628.42 237.01 628.02 237.33
  L 627.73 237.56
  C 605.97 227.71 584.68 219.99 561.14 216.03
  C 498.67 205.52 435.79 218.27 382.30 250.55
  Q 375.27 254.79 363.08 263.88
  C 337.87 282.67 316.77 303.17 299.32 328.30
  C 293.20 337.12 286.94 345.68 281.95 355.22
  L 281.33 355.26
  Q 280.87 355.29 280.74 354.85
  C 280.52 354.14 280.52 353.58 280.01 353.01
  Q 279.08 351.98 278.07 351.02
  Q 277.74 350.70 277.68 350.25
  Q 277.58 349.46 276.91 348.91
  Q 275.53 347.77 273.98 346.77
  A 0.80 0.77 58.0 0 0 273.46 346.64
  Q 272.82 346.70 272.86 346.05
  A 0.93 0.92 -72.7 0 0 272.41 345.19
  Q 270.96 344.30 269.83 342.97
  Q 269.54 342.63 269.62 342.18
  Q 269.80 341.23 269.01 341.03
  Q 268.46 340.89 268.26 340.36
  L 267.72 338.91
  Q 274.28 328.18 281.71 317.95
  Q 300.89 291.55 317.73 275.22
  Q 329.89 263.43 349.83 248.31
  Q 358.05 242.07 366.36 237.10
  C 403.29 215.00 441.37 199.84 484.50 194.49
  C 488.08 194.04 492.57 194.39 496.42 193.66
  C 505.89 191.85 516.06 192.44 525.67 192.68
  C 528.44 192.75 531.51 193.84 533.90 193.88
  C 579.55 194.58 627.98 212.72 664.26 234.54
  Z"
/>
<path fill="#153857" d="
  M 627.73 237.56
  Q 646.64 246.79 652.38 250.11
  Q 676.87 264.26 699.52 286.99
  Q 717.92 305.44 722.56 311.71
  C 739.50 334.57 754.83 359.61 764.48 386.63
  C 766.63 392.65 769.35 398.64 770.85 404.75
  Q 774.38 419.19 777.15 433.79
  Q 777.91 437.79 778.67 441.79
  C 779.20 444.55 779.03 448.38 780.09 451.66
  Q 780.24 452.13 780.73 452.20
  Q 782.29 452.42 783.75 452.17
  A 1.82 1.82 0.0 0 1 784.72 452.28
  C 787.01 453.21 789.75 452.43 792.05 453.23
  Q 792.12 453.26 792.13 453.25
  Q 792.19 453.13 792.25 453.01
  A 0.13 0.13 0.0 0 1 792.48 453.00
  Q 793.27 454.34 794.40 453.61
  Q 794.72 453.40 795.11 453.43
  L 798.35 453.66
  A 0.77 0.77 0.0 0 0 799.16 452.75
  L 798.80 450.92
  A 1.02 0.99 -40.8 0 1 798.85 450.35
  Q 799.15 449.55 799.67 449.71
  C 800.12 454.00 799.87 458.18 800.70 462.45
  C 802.31 470.71 801.54 480.77 801.53 489.25
  C 801.52 493.55 800.47 498.39 800.25 501.93
  C 799.96 506.87 800.10 511.99 799.56 516.65
  Q 795.56 550.97 783.36 583.30
  Q 782.56 583.17 782.36 582.41
  Q 782.23 581.92 781.72 581.87
  Q 781.22 581.83 781.03 582.32
  A 0.69 0.69 0.0 0 1 779.84 582.49
  Q 779.28 581.76 778.36 581.88
  Q 777.93 581.93 777.73 581.55
  Q 777.11 580.41 775.77 580.00
  Q 775.29 579.84 775.57 579.42
  L 776.19 578.52
  A 0.48 0.48 0.0 0 0 775.80 577.78
  Q 775.02 577.77 774.91 577.31
  C 774.73 576.59 776.08 575.26 775.90 573.77
  Q 775.78 572.78 774.68 571.61
  C 772.55 569.35 771.59 566.49 769.97 563.90
  Q 769.75 563.55 769.79 563.14
  Q 769.86 562.54 769.46 562.24
  C 768.87 561.79 768.39 561.32 767.64 561.15
  Q 767.30 561.08 767.09 560.80
  L 765.77 559.04
  Q 765.47 558.64 765.47 558.13
  Q 765.46 556.74 764.54 555.72
  Q 764.17 555.30 764.11 554.75
  Q 763.74 551.26 761.86 548.41
  A 0.72 0.71 -32.4 0 0 760.88 548.20
  Q 760.38 548.51 759.99 549.09
  A 0.46 0.45 61.4 0 1 759.16 548.84
  L 759.11 547.27
  A 0.19 0.15 -38.0 0 1 759.13 547.19
  Q 759.40 546.84 759.74 546.51
  Q 760.03 546.21 759.90 545.82
  Q 759.76 545.40 759.47 545.38
  Q 758.98 545.33 759.10 544.86
  Q 759.39 543.69 759.10 542.27
  Q 758.94 541.48 759.57 541.20
  A 0.43 0.42 54.3 0 1 760.04 541.28
  L 760.27 541.52
  A 0.33 0.33 0.0 0 0 760.81 541.39
  Q 761.90 538.24 759.87 535.77
  Q 759.57 535.40 759.48 534.94
  Q 759.21 533.51 758.06 532.51
  Q 758.02 532.48 758.12 532.38
  L 758.30 532.19
  A 0.11 0.10 43.2 0 0 758.29 532.03
  Q 757.91 531.74 757.56 531.96
  Q 757.32 532.12 757.12 531.91
  Q 756.62 531.43 756.89 530.76
  Q 757.58 529.14 757.01 527.63
  Q 756.79 527.02 756.52 527.62
  Q 756.14 528.51 755.58 528.46
  C 755.92 523.74 756.20 519.47 757.08 514.56
  Q 758.87 504.61 759.19 494.50
  Q 759.89 472.26 759.02 461.50
  Q 758.29 452.48 754.68 431.85
  Q 754.42 430.33 753.53 427.21
  C 752.94 425.15 752.60 422.69 752.18 420.93
  C 747.06 399.56 738.84 376.64 727.52 357.26
  Q 710.42 328.02 687.99 305.26
  C 672.71 289.75 654.12 275.14 634.62 264.48
  C 609.64 250.83 581.70 240.68 553.45 236.11
  C 546.23 234.94 538.90 235.09 531.50 235.15
  C 528.67 235.17 523.43 233.86 519.25 233.77
  C 515.83 233.68 512.34 234.28 508.92 234.67
  C 503.55 235.29 498.04 235.08 492.62 235.22
  Q 487.86 235.34 482.72 236.23
  C 476.61 237.28 470.23 238.17 464.48 239.54
  Q 417.36 250.84 379.28 278.07
  C 362.37 290.17 344.16 305.98 330.49 322.83
  C 311.95 345.68 295.38 371.81 286.26 398.26
  Q 279.60 417.58 278.18 424.75
  Q 276.19 434.71 274.35 444.70
  Q 273.54 449.09 272.91 456.90
  C 272.47 462.45 271.29 467.87 271.27 473.24
  Q 271.22 484.38 271.25 495.50
  C 271.26 500.59 272.60 506.12 272.71 511.52
  C 272.88 520.11 274.94 528.34 276.49 536.60
  C 280.76 559.38 288.12 576.85 298.48 598.29
  Q 299.64 600.69 297.31 602.79
  Q 292.71 606.95 288.14 611.13
  C 283.21 615.64 276.80 622.35 270.63 627.70
  A 1.91 1.90 35.3 0 1 268.69 628.03
  Q 267.30 627.48 266.31 625.71
  C 257.31 609.48 248.96 592.25 243.05 574.49
  Q 234.41 548.58 231.22 523.99
  C 230.21 516.19 228.92 509.25 228.91 501.96
  Q 228.88 485.92 228.89 469.89
  C 228.90 460.01 230.14 450.98 231.65 441.48
  Q 231.90 442.30 232.43 442.40
  Q 232.70 442.44 232.74 442.71
  Q 232.77 442.95 232.84 443.17
  Q 232.95 443.52 233.35 443.62
  Q 233.70 443.71 234.05 443.59
  Q 234.47 443.45 234.77 443.78
  Q 235.28 444.36 235.98 444.14
  Q 236.34 444.03 236.72 444.09
  Q 237.49 444.21 238.27 444.23
  Q 242.19 444.29 246.16 444.25
  Q 246.56 444.24 246.90 444.46
  L 250.35 446.65
  Q 250.80 446.93 250.91 446.41
  Q 253.89 431.66 256.75 418.49
  Q 259.39 406.28 268.23 383.50
  C 272.42 372.68 277.21 364.65 281.95 355.22
  C 286.94 345.68 293.20 337.12 299.32 328.30
  C 316.77 303.17 337.87 282.67 363.08 263.88
  Q 375.27 254.79 382.30 250.55
  C 435.79 218.27 498.67 205.52 561.14 216.03
  C 584.68 219.99 605.97 227.71 627.73 237.56
  Z"
/>
<path fill="#16466d" d="
  M 664.26 234.54
  C 679.33 243.94 694.34 254.39 707.13 266.79
  C 711.61 271.13 716.72 275.41 720.74 279.64
  Q 735.60 295.27 746.28 310.22
  C 770.43 344.08 787.12 383.88 795.57 424.50
  Q 797.04 431.59 799.67 449.71
  Q 799.15 449.55 798.85 450.35
  A 1.02 0.99 -40.8 0 0 798.80 450.92
  L 799.16 452.75
  A 0.77 0.77 0.0 0 1 798.35 453.66
  L 795.11 453.43
  Q 794.72 453.40 794.40 453.61
  Q 793.27 454.34 792.48 453.00
  A 0.13 0.13 0.0 0 0 792.25 453.01
  Q 792.19 453.13 792.13 453.25
  Q 792.12 453.26 792.05 453.23
  C 789.75 452.43 787.01 453.21 784.72 452.28
  A 1.82 1.82 0.0 0 0 783.75 452.17
  Q 782.29 452.42 780.73 452.20
  Q 780.24 452.13 780.09 451.66
  C 779.03 448.38 779.20 444.55 778.67 441.79
  Q 777.91 437.79 777.15 433.79
  Q 774.38 419.19 770.85 404.75
  C 769.35 398.64 766.63 392.65 764.48 386.63
  C 754.83 359.61 739.50 334.57 722.56 311.71
  Q 717.92 305.44 699.52 286.99
  Q 676.87 264.26 652.38 250.11
  Q 646.64 246.79 627.73 237.56
  L 628.02 237.33
  Q 628.42 237.01 628.71 237.43
  Q 629.25 238.23 630.18 238.26
  Q 630.51 238.27 630.78 238.46
  Q 631.67 239.05 632.53 238.46
  A 1.37 1.35 -61.8 0 1 633.30 238.22
  C 634.60 238.22 635.37 238.48 636.66 238.07
  Q 640.40 236.91 644.31 236.94
  Q 644.76 236.94 645.16 236.76
  Q 646.80 236.03 648.61 236.56
  A 1.23 1.09 -37.0 0 0 649.09 236.60
  Q 651.65 236.30 654.23 236.39
  Q 654.68 236.40 654.91 236.80
  Q 655.81 238.40 654.53 239.04
  Q 653.89 239.36 654.60 239.35
  C 656.71 239.31 658.10 237.84 660.79 237.81
  A 1.04 1.03 -67.5 0 0 661.48 237.52
  L 661.99 237.00
  Q 662.31 236.68 662.75 236.80
  Q 664.14 237.16 664.58 236.47
  Q 664.80 236.14 664.47 235.90
  L 664.11 235.64
  Q 663.78 235.40 664.10 235.15
  Q 664.35 234.96 664.26 234.54
  Z"
/>
<path fill="#1387c6" d="
  M 610.75 302.07
  L 608.87 304.63
  Q 608.60 304.99 608.73 305.41
  Q 609.33 307.49 607.72 309.09
  A 1.38 1.28 -14.3 0 0 607.41 309.57
  Q 606.80 311.23 606.38 312.98
  C 605.83 315.29 604.40 316.46 604.28 319.17
  Q 604.26 319.72 603.73 319.87
  Q 602.78 320.14 601.41 319.99
  Q 583.32 312.05 568.25 308.26
  C 546.09 302.68 519.43 301.63 496.26 306.78
  C 457.47 315.39 427.42 335.25 402.52 365.55
  Q 402.02 365.59 401.55 365.83
  Q 401.44 365.88 401.49 365.99
  Q 401.56 366.13 401.63 366.28
  A 0.17 0.17 0.0 0 1 401.41 366.52
  Q 400.65 366.20 400.26 365.29
  A 0.59 0.58 64.7 0 0 399.47 365.00
  Q 398.71 365.38 398.08 364.84
  A 1.06 1.05 -30.1 0 0 397.21 364.61
  Q 394.55 365.12 391.98 364.20
  Q 391.46 364.01 391.00 364.33
  Q 390.13 364.92 389.48 364.66
  Q 386.64 363.51 383.67 364.14
  A 1.27 1.23 54.5 0 1 382.73 363.97
  Q 381.56 363.23 380.40 364.09
  Q 380.23 364.22 380.07 364.07
  Q 379.97 363.97 379.87 363.87
  Q 379.51 363.49 379.88 363.12
  L 380.11 362.89
  Q 380.22 362.78 380.10 362.67
  Q 379.43 362.05 379.23 361.28
  C 382.65 355.73 387.68 350.70 390.53 347.01
  Q 395.91 340.05 400.76 335.51
  Q 414.04 323.10 429.09 312.93
  Q 454.88 295.53 481.77 289.32
  C 488.56 287.75 493.72 286.18 499.71 285.46
  C 503.64 284.99 507.55 284.04 511.41 283.79
  C 519.98 283.24 528.23 280.84 536.26 282.45
  Q 540.77 283.36 544.25 283.64
  Q 550.12 284.12 552.22 284.47
  C 556.72 285.22 561.04 285.47 565.50 286.66
  C 570.59 288.01 576.05 288.75 580.73 290.26
  Q 596.05 295.21 610.75 302.07
  Z"
/>
<path fill="#1275b0" d="
  M 610.75 302.07
  C 628.89 311.09 645.94 322.78 660.30 337.10
  C 678.97 355.71 692.39 375.86 703.38 400.33
  Q 696.14 401.92 689.76 405.26
  Q 687.99 406.20 683.56 406.06
  Q 676.30 389.19 665.54 374.49
  C 655.55 360.82 644.53 348.59 630.96 338.54
  Q 616.96 328.15 601.41 319.99
  Q 602.78 320.14 603.73 319.87
  Q 604.26 319.72 604.28 319.17
  C 604.40 316.46 605.83 315.29 606.38 312.98
  Q 606.80 311.23 607.41 309.57
  A 1.38 1.28 -14.3 0 1 607.72 309.09
  Q 609.33 307.49 608.73 305.41
  Q 608.60 304.99 608.87 304.63
  L 610.75 302.07
  Z"
/>
<path fill="#153857" d="
  M 601.41 319.99
  Q 616.96 328.15 630.96 338.54
  C 644.53 348.59 655.55 360.82 665.54 374.49
  Q 676.30 389.19 683.56 406.06
  C 686.90 414.67 688.52 419.12 689.99 426.31
  Q 689.57 425.53 689.22 425.36
  A 0.28 0.28 0.0 0 0 688.82 425.64
  C 689.10 428.72 690.47 431.73 690.98 434.36
  C 691.89 439.12 692.93 443.78 693.44 448.59
  Q 694.12 454.92 694.80 461.25
  Q 695.67 469.36 694.70 481.94
  L 693.66 476.47
  Q 693.61 476.18 693.31 476.19
  L 686.97 476.41
  Q 686.52 476.43 686.12 476.62
  Q 685.47 476.93 684.42 477.18
  Q 683.78 477.33 683.58 478.03
  Q 683.43 478.54 682.92 478.71
  Q 682.04 479.00 681.09 479.00
  Q 680.63 478.99 680.21 479.17
  L 674.71 481.47
  Q 674.36 481.61 674.18 481.94
  Q 673.57 482.97 673.88 484.21
  Q 674.00 484.74 673.47 484.61
  L 672.97 484.49
  A 0.19 0.18 9.6 0 1 672.83 484.30
  Q 673.07 482.25 672.62 480.44
  Q 673.33 462.33 669.45 442.51
  C 665.01 419.81 655.37 400.78 642.77 382.45
  Q 642.16 381.56 642.16 382.64
  L 641.93 436.71
  L 642.47 459.38
  A 1.19 1.18 89.0 0 1 641.30 460.60
  L 632.02 460.66
  Q 631.20 460.67 631.21 461.48
  L 631.38 496.35
  A 3.07 3.07 0.0 0 1 628.63 499.41
  L 627.95 499.48
  Q 624.03 499.89 624.03 495.95
  L 624.05 461.34
  Q 624.05 460.75 623.46 460.75
  L 613.26 460.76
  Q 612.73 460.76 612.72 460.22
  L 612.69 404.21
  L 612.53 356.56
  A 1.97 1.96 19.7 0 0 611.81 355.04
  Q 606.24 350.44 599.84 346.86
  Q 565.11 327.45 525.73 328.06
  C 494.67 328.55 461.23 342.16 438.59 363.47
  C 421.68 379.38 406.29 400.33 398.71 422.24
  Q 396.55 428.47 393.01 441.52
  Q 390.29 449.19 389.72 455.75
  Q 388.01 475.23 390.22 497.51
  Q 390.43 499.65 391.90 504.38
  C 393.48 509.44 394.40 515.07 396.74 520.28
  C 397.01 522.00 396.94 523.52 397.62 525.15
  Q 398.72 527.79 399.55 530.56
  Q 407.09 548.58 419.15 564.00
  Q 418.82 565.46 418.10 565.46
  Q 417.76 565.46 417.79 565.80
  Q 417.91 566.99 417.08 567.91
  Q 416.74 568.29 416.66 568.79
  C 415.82 573.59 413.93 576.13 411.32 580.09
  C 410.17 581.83 407.72 583.06 408.18 586.07
  Q 402.71 580.65 398.16 574.44
  C 397.03 572.90 395.47 571.75 394.11 570.01
  Q 392.24 567.61 386.15 561.91
  Q 387.93 561.06 387.32 560.15
  C 383.48 554.32 380.23 548.31 377.55 541.62
  C 365.25 510.90 360.48 479.80 366.20 446.75
  C 371.55 415.84 382.90 390.02 402.52 365.55
  C 427.42 335.25 457.47 315.39 496.26 306.78
  C 519.43 301.63 546.09 302.68 568.25 308.26
  Q 583.32 312.05 601.41 319.99
  Z"
/>
<path fill="#cadae4" d="
  M 612.69 404.21
  L 612.42 399.75
  Q 612.39 399.20 611.84 399.23
  Q 611.50 399.25 611.15 399.47
  A 1.09 1.08 55.5 0 1 609.68 399.19
  Q 604.90 392.58 599.13 388.11
  C 586.11 378.02 571.43 370.83 555.43 366.92
  C 535.30 362.00 514.14 363.25 493.51 368.16
  Q 492.00 368.52 488.91 369.79
  Q 488.47 369.97 488.08 370.27
  L 486.50 371.49
  A 0.29 0.28 87.5 0 1 486.09 371.11
  L 486.84 369.92
  Q 487.11 369.50 487.14 369.00
  C 487.61 361.85 480.18 355.54 473.59 357.82
  Q 470.69 358.83 465.10 364.20
  Q 457.68 371.32 455.14 373.65
  C 436.38 390.84 422.25 413.38 417.11 438.27
  Q 416.39 441.78 415.31 445.25
  L 401.90 445.57
  Q 401.60 440.58 397.69 438.35
  A 1.17 1.17 0.0 0 0 395.97 439.10
  Q 395.25 442.13 393.01 441.52
  Q 396.55 428.47 398.71 422.24
  C 406.29 400.33 421.68 379.38 438.59 363.47
  C 461.23 342.16 494.67 328.55 525.73 328.06
  Q 565.11 327.45 599.84 346.86
  Q 606.24 350.44 611.81 355.04
  A 1.97 1.96 19.7 0 1 612.53 356.56
  L 612.69 404.21
  Z"
/>
<path fill="#16466d" d="
  M 267.72 338.91
  L 268.26 340.36
  Q 268.46 340.89 269.01 341.03
  Q 269.80 341.23 269.62 342.18
  Q 269.54 342.63 269.83 342.97
  Q 270.96 344.30 272.41 345.19
  A 0.93 0.92 -72.7 0 1 272.86 346.05
  Q 272.82 346.70 273.46 346.64
  A 0.80 0.77 58.0 0 1 273.98 346.77
  Q 275.53 347.77 276.91 348.91
  Q 277.58 349.46 277.68 350.25
  Q 277.74 350.70 278.07 351.02
  Q 279.08 351.98 280.01 353.01
  C 280.52 353.58 280.52 354.14 280.74 354.85
  Q 280.87 355.29 281.33 355.26
  L 281.95 355.22
  C 277.21 364.65 272.42 372.68 268.23 383.50
  Q 259.39 406.28 256.75 418.49
  Q 253.89 431.66 250.91 446.41
  Q 250.80 446.93 250.35 446.65
  L 246.90 444.46
  Q 246.56 444.24 246.16 444.25
  Q 242.19 444.29 238.27 444.23
  Q 237.49 444.21 236.72 444.09
  Q 236.34 444.03 235.98 444.14
  Q 235.28 444.36 234.77 443.78
  Q 234.47 443.45 234.05 443.59
  Q 233.70 443.71 233.35 443.62
  Q 232.95 443.52 232.84 443.17
  Q 232.77 442.95 232.74 442.71
  Q 232.70 442.44 232.43 442.40
  Q 231.90 442.30 231.65 441.48
  Q 235.22 416.25 241.06 399.49
  Q 250.23 373.17 255.94 360.50
  Q 258.49 354.84 267.72 338.91
  Z"
/>
<path fill="#f4f7f9" d="
  M 612.69 404.21
  L 612.72 460.22
  Q 612.73 460.76 613.26 460.76
  L 623.46 460.75
  Q 624.05 460.75 624.05 461.34
  L 624.03 495.95
  Q 624.03 499.89 627.95 499.48
  L 628.63 499.41
  A 3.07 3.07 0.0 0 0 631.38 496.35
  L 631.21 461.48
  Q 631.20 460.67 632.02 460.66
  L 641.30 460.60
  A 1.19 1.18 89.0 0 0 642.47 459.38
  L 641.93 436.71
  L 642.00 426.78
  A 0.91 0.91 0.0 0 1 642.73 425.89
  Q 643.48 425.74 643.60 426.53
  Q 643.72 427.41 643.74 427.46
  C 646.97 439.61 650.53 451.59 650.94 464.25
  Q 651.42 478.98 649.17 493.52
  C 644.16 525.95 626.72 555.52 599.01 573.79
  C 590.81 579.20 580.53 583.26 571.25 586.44
  Q 553.57 592.49 533.84 593.00
  L 533.77 440.30
  A 1.04 1.04 0.0 0 0 532.72 439.26
  L 504.75 439.50
  A 0.59 0.59 0.0 0 0 504.16 440.09
  L 504.21 591.04
  Q 491.72 586.74 486.14 584.58
  Q 477.47 581.24 466.79 575.13
  L 466.78 569.01
  A 0.72 0.72 0.0 0 1 467.50 568.29
  L 477.21 568.31
  A 0.27 0.27 0.0 0 0 477.48 568.04
  L 477.52 424.48
  A 0.54 0.54 0.0 0 0 476.98 423.94
  L 466.97 423.96
  Q 466.47 423.96 466.48 423.47
  L 466.97 388.79
  Q 467.00 386.58 465.51 388.22
  L 460.09 394.23
  Q 458.51 395.98 458.55 398.34
  L 458.91 423.56
  A 0.47 0.47 0.0 0 1 458.44 424.03
  L 447.76 424.00
  A 0.54 0.54 0.0 0 0 447.22 424.54
  L 447.16 533.61
  Q 439.83 523.52 434.99 513.01
  C 433.87 510.60 433.43 507.79 432.36 505.15
  L 431.62 503.02
  Q 429.76 497.82 430.71 493.41
  Q 429.88 469.39 430.55 445.54
  A 0.49 0.49 0.0 0 0 430.05 445.03
  L 415.31 445.25
  Q 416.39 441.78 417.11 438.27
  C 422.25 413.38 436.38 390.84 455.14 373.65
  Q 457.68 371.32 465.10 364.20
  Q 470.69 358.83 473.59 357.82
  C 480.18 355.54 487.61 361.85 487.14 369.00
  Q 487.11 369.50 486.84 369.92
  L 486.09 371.11
  A 0.29 0.28 87.5 0 0 486.50 371.49
  L 488.08 370.27
  Q 488.47 369.97 488.91 369.79
  Q 492.00 368.52 493.51 368.16
  C 514.14 363.25 535.30 362.00 555.43 366.92
  C 571.43 370.83 586.11 378.02 599.13 388.11
  Q 604.90 392.58 609.68 399.19
  A 1.09 1.08 55.5 0 0 611.15 399.47
  Q 611.50 399.25 611.84 399.23
  Q 612.39 399.20 612.42 399.75
  L 612.69 404.21
  Z
  M 573.99 568.74
  C 574.30 572.61 573.00 578.54 575.74 580.74
  C 578.40 582.88 581.58 580.64 581.65 577.25
  Q 581.74 573.09 581.78 569.15
  A 0.59 0.58 89.0 0 1 582.33 568.57
  L 592.61 567.85
  A 0.32 0.32 0.0 0 0 592.91 567.53
  L 592.85 465.95
  Q 592.85 465.05 591.95 465.06
  L 581.95 465.09
  Q 581.32 465.09 581.32 464.45
  L 581.48 440.76
  A 2.62 2.62 0.0 0 0 578.81 438.12
  L 577.85 438.14
  Q 574.27 438.20 574.25 441.78
  L 574.13 464.43
  A 0.56 0.56 0.0 0 1 573.57 464.99
  L 562.30 465.00
  A 0.70 0.70 0.0 0 0 561.60 465.70
  L 561.66 568.08
  A 0.17 0.17 0.0 0 0 561.83 568.25
  L 573.48 568.27
  Q 573.95 568.27 573.99 568.74
  Z"
/>
<path fill="#1275b0" d="
  M 379.23 361.28
  Q 379.43 362.05 380.10 362.67
  Q 380.22 362.78 380.11 362.89
  L 379.88 363.12
  Q 379.51 363.49 379.87 363.87
  Q 379.97 363.97 380.07 364.07
  Q 380.23 364.22 380.40 364.09
  Q 381.56 363.23 382.73 363.97
  A 1.27 1.23 54.5 0 0 383.67 364.14
  Q 386.64 363.51 389.48 364.66
  Q 390.13 364.92 391.00 364.33
  Q 391.46 364.01 391.98 364.20
  Q 394.55 365.12 397.21 364.61
  A 1.06 1.05 -30.1 0 1 398.08 364.84
  Q 398.71 365.38 399.47 365.00
  A 0.59 0.58 64.7 0 1 400.26 365.29
  Q 400.65 366.20 401.41 366.52
  A 0.17 0.17 0.0 0 0 401.63 366.28
  Q 401.56 366.13 401.49 365.99
  Q 401.44 365.88 401.55 365.83
  Q 402.02 365.59 402.52 365.55
  C 382.90 390.02 371.55 415.84 366.20 446.75
  C 360.48 479.80 365.25 510.90 377.55 541.62
  C 380.23 548.31 383.48 554.32 387.32 560.15
  Q 387.93 561.06 386.15 561.91
  L 370.15 572.76
  Q 362.54 558.73 359.25 551.50
  C 354.34 540.71 350.57 526.81 347.32 514.50
  C 346.64 511.92 346.48 508.68 345.74 505.78
  Q 345.13 503.37 344.97 501.66
  C 344.41 495.62 343.60 489.51 343.45 483.59
  C 343.03 467.91 343.18 456.59 345.69 442.71
  Q 345.71 442.61 346.67 435.75
  C 347.28 431.37 349.13 426.58 350.00 423.08
  Q 353.20 410.17 356.44 402.19
  Q 364.57 382.19 379.23 361.28
  Z"
/>
<path fill="#cadae4" d="
  M 672.62 480.44
  Q 672.29 491.78 668.89 505.94
  C 665.14 521.51 660.49 535.17 652.15 548.57
  C 626.44 589.89 583.44 614.36 534.53 615.97
  Q 534.36 616.05 534.22 616.03
  Q 533.82 615.98 533.82 615.58
  L 533.84 593.00
  Q 553.57 592.49 571.25 586.44
  C 580.53 583.26 590.81 579.20 599.01 573.79
  C 626.72 555.52 644.16 525.95 649.17 493.52
  Q 651.42 478.98 650.94 464.25
  C 650.53 451.59 646.97 439.61 643.74 427.46
  Q 643.72 427.41 643.60 426.53
  Q 643.48 425.74 642.73 425.89
  A 0.91 0.91 0.0 0 0 642.00 426.78
  L 641.93 436.71
  L 642.16 382.64
  Q 642.16 381.56 642.77 382.45
  C 655.37 400.78 665.01 419.81 669.45 442.51
  Q 673.33 462.33 672.62 480.44
  Z"
/>
<path fill="#153857" d="
  M 466.79 575.13
  L 466.41 602.27
  Q 461.86 601.06 458.91 598.56
  L 458.66 568.86
  A 0.62 0.62 0.0 0 0 458.04 568.25
  L 448.24 568.33
  A 0.83 0.83 0.0 0 1 447.40 567.50
  L 447.16 533.61
  L 447.22 424.54
  A 0.54 0.54 0.0 0 1 447.76 424.00
  L 458.44 424.03
  A 0.47 0.47 0.0 0 0 458.91 423.56
  L 458.55 398.34
  Q 458.51 395.98 460.09 394.23
  L 465.51 388.22
  Q 467.00 386.58 466.97 388.79
  L 466.48 423.47
  Q 466.47 423.96 466.97 423.96
  L 476.98 423.94
  A 0.54 0.54 0.0 0 1 477.52 424.48
  L 477.48 568.04
  A 0.27 0.27 0.0 0 1 477.21 568.31
  L 467.50 568.29
  A 0.72 0.72 0.0 0 0 466.78 569.01
  L 466.79 575.13
  Z"
/>
<path fill="#16466d" d="
  M 703.38 400.33
  Q 709.51 416.39 713.52 433.52
  C 714.23 436.59 714.54 439.25 715.31 442.80
  C 715.88 445.40 715.76 448.15 716.19 450.61
  Q 717.83 459.92 717.19 469.45
  Q 716.66 469.92 716.87 470.90
  Q 716.89 471.01 716.93 470.90
  Q 717.00 470.71 716.78 470.54
  Q 716.55 470.36 716.27 470.44
  Q 714.49 470.90 713.27 472.23
  Q 712.88 472.64 712.32 472.64
  L 704.49 472.63
  Q 704.07 472.63 704.10 472.21
  Q 704.12 471.90 703.89 471.66
  A 0.21 0.21 0.0 0 0 703.55 471.72
  Q 703.48 471.88 703.41 472.04
  Q 703.30 472.36 702.97 472.27
  L 697.86 471.01
  Q 697.38 470.90 697.34 470.42
  C 695.95 455.27 694.86 442.21 689.99 426.31
  C 688.52 419.12 686.90 414.67 683.56 406.06
  Q 687.99 406.20 689.76 405.26
  Q 696.14 401.92 703.38 400.33
  Z"
/>
<path fill="#102944" d="
  M 689.99 426.31
  C 694.86 442.21 695.95 455.27 697.34 470.42
  Q 697.38 470.90 697.86 471.01
  L 702.97 472.27
  Q 703.30 472.36 703.41 472.04
  Q 703.48 471.88 703.55 471.72
  A 0.21 0.21 0.0 0 1 703.89 471.66
  Q 704.12 471.90 704.10 472.21
  Q 704.07 472.63 704.49 472.63
  L 712.32 472.64
  Q 712.88 472.64 713.27 472.23
  Q 714.49 470.90 716.27 470.44
  Q 716.55 470.36 716.78 470.54
  Q 717.00 470.71 716.93 470.90
  Q 716.89 471.01 716.87 470.90
  Q 716.66 469.92 717.19 469.45
  Q 717.83 488.41 717.04 494.24
  Q 713.05 523.87 703.19 547.96
  Q 697.45 562.00 686.19 578.95
  C 661.38 616.32 627.35 640.22 585.32 653.80
  C 563.66 660.80 538.80 664.79 515.85 662.39
  C 508.84 661.66 502.97 661.63 496.81 660.43
  C 472.83 655.76 451.16 647.75 430.82 634.40
  C 429.08 633.25 427.00 632.63 425.21 631.57
  A 2.22 2.21 40.6 0 0 422.69 631.76
  Q 416.75 636.64 411.54 642.78
  Q 407.35 647.73 389.84 664.09
  C 386.26 667.43 386.55 673.56 383.89 677.64
  Q 381.70 680.98 379.19 683.45
  C 363.04 699.34 347.12 715.48 330.94 731.34
  Q 307.41 754.42 284.38 777.99
  Q 274.92 787.67 273.50 788.87
  C 263.51 797.33 250.16 803.00 236.96 798.84
  C 222.88 794.40 212.23 783.49 207.83 769.21
  Q 215.00 771.40 221.89 769.98
  C 223.96 769.56 226.82 769.89 228.49 769.21
  Q 231.23 768.09 232.75 769.49
  C 237.13 773.52 240.25 776.39 246.37 776.51
  C 256.64 776.71 261.71 767.78 268.21 761.30
  Q 270.39 759.13 273.83 755.58
  C 288.72 740.24 309.18 720.51 328.09 700.95
  Q 342.42 686.12 356.80 670.61
  Q 357.36 670.01 356.82 669.39
  L 350.54 662.26
  A 0.89 0.89 0.0 0 1 350.49 661.16
  Q 350.80 660.72 350.82 660.36
  Q 358.75 653.46 365.83 645.22
  Q 368.16 647.61 370.27 650.21
  C 372.18 652.57 374.49 651.24 376.12 649.62
  Q 386.97 638.82 397.26 627.50
  C 399.56 624.97 402.25 622.52 404.70 619.96
  C 407.02 617.53 405.04 614.88 403.18 613.07
  Q 397.29 607.35 391.26 601.79
  Q 390.52 601.11 389.21 600.81
  Q 388.72 600.70 388.27 600.92
  C 383.89 603.10 380.21 607.95 376.65 610.90
  Q 371.55 615.11 355.01 633.94
  Q 351.46 631.18 347.19 626.31
  Q 345.93 624.88 340.81 621.42
  Q 340.39 621.13 340.25 620.01
  Q 340.81 619.42 341.14 618.53
  C 343.28 616.66 345.42 614.92 347.37 612.89
  Q 361.48 598.19 376.13 583.57
  A 1.89 1.88 -45.1 0 0 376.13 580.90
  Q 372.62 577.44 370.15 572.76
  L 386.15 561.91
  Q 392.24 567.61 394.11 570.01
  C 395.47 571.75 397.03 572.90 398.16 574.44
  Q 402.71 580.65 408.18 586.07
  C 419.67 598.48 433.13 608.42 447.69 616.83
  Q 460.31 624.12 474.25 628.75
  C 488.30 633.43 498.58 636.47 512.49 637.55
  C 532.39 639.10 552.45 637.57 571.70 632.31
  Q 595.18 625.90 614.00 615.26
  Q 647.33 596.42 669.56 562.31
  Q 679.04 547.76 685.49 528.45
  C 687.22 523.25 688.61 517.23 690.11 511.58
  Q 691.97 504.57 692.78 498.77
  Q 693.95 490.40 694.70 481.94
  Q 695.67 469.36 694.80 461.25
  Q 694.12 454.92 693.44 448.59
  C 692.93 443.78 691.89 439.12 690.98 434.36
  C 690.47 431.73 689.10 428.72 688.82 425.64
  A 0.28 0.28 0.0 0 1 689.22 425.36
  Q 689.57 425.53 689.99 426.31
  Z"
/>
<path fill="#153857" d="
  M 573.48 568.27
  L 561.83 568.25
  A 0.17 0.17 0.0 0 1 561.66 568.08
  L 561.60 465.70
  A 0.70 0.70 0.0 0 1 562.30 465.00
  L 573.57 464.99
  A 0.56 0.56 0.0 0 0 574.13 464.43
  L 574.25 441.78
  Q 574.27 438.20 577.85 438.14
  L 578.81 438.12
  A 2.62 2.62 0.0 0 1 581.48 440.76
  L 581.32 464.45
  Q 581.32 465.09 581.95 465.09
  L 591.95 465.06
  Q 592.85 465.05 592.85 465.95
  L 592.91 567.53
  A 0.32 0.32 0.0 0 1 592.61 567.85
  L 582.33 568.57
  A 0.59 0.58 89.0 0 0 581.78 569.15
  Q 581.74 573.09 581.65 577.25
  C 581.58 580.64 578.40 582.88 575.74 580.74
  C 573.00 578.54 574.30 572.61 573.99 568.74
  Q 573.95 568.27 573.48 568.27
  Z"
/>
<path fill="#153857" d="
  M 533.84 593.00
  L 533.82 615.58
  Q 533.82 615.98 534.22 616.03
  Q 534.36 616.05 534.53 615.97
  Q 535.02 616.54 534.74 616.70
  Q 533.92 617.15 533.00 617.17
  Q 520.31 617.48 507.72 615.93
  C 506.65 615.80 505.43 616.10 504.26 615.85
  Q 503.82 615.76 503.94 615.33
  Q 503.98 615.18 504.07 615.01
  Q 504.19 614.97 504.31 614.82
  A 0.35 0.34 -25.1 0 0 504.40 614.59
  L 504.21 591.04
  L 504.16 440.09
  A 0.59 0.59 0.0 0 1 504.75 439.50
  L 532.72 439.26
  A 1.04 1.04 0.0 0 1 533.77 440.30
  L 533.84 593.00
  Z"
/>
<path fill="#153857" d="
  M 430.71 493.41
  Q 426.33 491.49 423.26 492.69
  A 1.47 1.45 -11.1 0 0 422.33 494.06
  L 422.40 505.04
  L 422.37 524.96
  Q 422.37 528.85 418.50 528.49
  L 417.79 528.42
  A 3.05 3.05 0.0 0 1 415.02 525.47
  L 414.47 507.50
  L 414.87 495.43
  Q 414.97 492.35 411.89 492.31
  L 403.17 492.21
  A 1.33 1.32 -89.8 0 1 401.86 490.88
  L 401.90 445.57
  L 415.31 445.25
  L 430.05 445.03
  A 0.49 0.49 0.0 0 1 430.55 445.54
  Q 429.88 469.39 430.71 493.41
  Z"
/>
<path fill="#185681" d="
  M 694.70 481.94
  Q 693.95 490.40 692.78 498.77
  Q 691.97 504.57 690.11 511.58
  C 688.61 517.23 687.22 523.25 685.49 528.45
  Q 679.04 547.76 669.56 562.31
  Q 647.33 596.42 614.00 615.26
  Q 595.18 625.90 571.70 632.31
  C 552.45 637.57 532.39 639.10 512.49 637.55
  C 498.58 636.47 488.30 633.43 474.25 628.75
  Q 460.31 624.12 447.69 616.83
  C 433.13 608.42 419.67 598.48 408.18 586.07
  C 407.72 583.06 410.17 581.83 411.32 580.09
  C 413.93 576.13 415.82 573.59 416.66 568.79
  Q 416.74 568.29 417.08 567.91
  Q 417.91 566.99 417.79 565.80
  Q 417.76 565.46 418.10 565.46
  Q 418.82 565.46 419.15 564.00
  C 430.60 578.25 443.48 588.79 458.91 598.56
  Q 461.86 601.06 466.41 602.27
  Q 476.34 607.27 486.98 610.58
  Q 494.44 612.90 504.07 615.01
  Q 503.98 615.18 503.94 615.33
  Q 503.82 615.76 504.26 615.85
  C 505.43 616.10 506.65 615.80 507.72 615.93
  Q 520.31 617.48 533.00 617.17
  Q 533.92 617.15 534.74 616.70
  Q 535.02 616.54 534.53 615.97
  C 583.44 614.36 626.44 589.89 652.15 548.57
  C 660.49 535.17 665.14 521.51 668.89 505.94
  Q 672.29 491.78 672.62 480.44
  Q 673.07 482.25 672.83 484.30
  A 0.19 0.18 9.6 0 0 672.97 484.49
  L 673.47 484.61
  Q 674.00 484.74 673.88 484.21
  Q 673.57 482.97 674.18 481.94
  Q 674.36 481.61 674.71 481.47
  L 680.21 479.17
  Q 680.63 478.99 681.09 479.00
  Q 682.04 479.00 682.92 478.71
  Q 683.43 478.54 683.58 478.03
  Q 683.78 477.33 684.42 477.18
  Q 685.47 476.93 686.12 476.62
  Q 686.52 476.43 686.97 476.41
  L 693.31 476.19
  Q 693.61 476.18 693.66 476.47
  L 694.70 481.94
  Z"
/>
<path fill="#1275b0" d="
  M 431.62 503.02
  L 432.36 505.15
  Q 432.70 510.36 429.91 514.60
  Q 429.58 515.09 429.01 514.97
  Q 427.85 514.74 426.82 514.04
  A 1.14 1.11 -33.9 0 0 425.94 513.88
  Q 424.47 514.22 423.65 513.13
  Q 423.57 513.02 423.69 512.96
  Q 423.87 512.88 423.83 512.78
  Q 422.70 510.11 422.79 506.98
  Q 424.08 508.58 425.98 509.10
  Q 426.50 509.24 426.89 508.86
  L 427.64 508.10
  A 0.52 0.52 0.0 0 1 428.41 508.14
  Q 429.58 509.55 430.49 509.49
  Q 431.37 509.42 431.61 507.92
  Q 431.96 505.62 431.62 503.02
  Z"
/>
<path fill="#1275b0" d="
  M 406.89 509.57
  Q 407.41 509.31 408.97 510.54
  L 409.03 519.38
  Q 409.04 519.48 409.15 519.48
  Q 409.19 519.48 409.21 519.48
  Q 409.31 519.49 409.31 519.49
  L 409.37 517.12
  Q 409.37 517.12 409.38 517.12
  Q 409.41 517.12 409.42 517.12
  Q 409.43 517.12 409.42 517.13
  Q 409.08 518.37 409.69 519.34
  A 0.61 0.60 73.5 0 0 410.20 519.62
  Q 410.35 519.62 410.51 519.63
  Q 410.73 519.64 410.70 519.86
  Q 410.68 520.00 410.73 520.12
  Q 410.84 520.38 411.02 520.16
  Q 412.44 518.43 411.83 516.29
  A 1.16 1.12 -44.1 0 1 411.85 515.63
  L 413.45 511.03
  Q 414.12 514.40 413.41 517.63
  Q 413.30 518.09 413.38 518.56
  Q 413.47 519.06 413.38 519.44
  Q 413.26 519.93 412.82 520.17
  Q 411.81 520.72 411.88 521.76
  Q 411.90 522.12 411.60 522.32
  Q 411.48 522.41 411.37 522.51
  Q 411.16 522.70 411.08 523.06
  Q 410.71 524.79 410.62 526.55
  Q 410.61 526.76 410.52 526.93
  Q 410.37 527.25 410.33 527.29
  A 0.94 0.90 62.9 0 1 408.77 526.75
  L 407.94 521.36
  Q 407.86 520.90 407.41 520.77
  Q 405.03 520.07 404.61 518.25
  Q 404.10 516.09 403.17 514.08
  C 402.74 513.13 402.86 512.47 402.81 511.47
  Q 402.80 511.14 402.46 511.14
  L 402.00 511.14
  Q 401.64 511.14 401.64 511.50
  L 401.64 512.50
  Q 401.64 513.01 401.24 513.33
  C 398.11 515.79 399.10 519.40 399.13 522.97
  A 0.23 0.23 0.0 0 0 399.23 523.16
  Q 399.74 523.55 399.62 523.07
  Q 399.60 522.98 399.65 523.05
  Q 400.66 524.61 400.94 526.42
  Q 401.02 526.91 400.65 527.24
  Q 399.78 527.99 400.15 529.00
  Q 400.42 529.74 401.43 529.59
  Q 402.07 529.49 401.66 530.00
  Q 400.96 530.88 400.87 532.02
  A 0.01 0.00 -38.0 0 0 400.88 532.02
  Q 401.05 531.15 400.75 530.28
  Q 400.54 529.70 400.01 530.01
  Q 399.76 530.15 399.55 530.56
  Q 398.72 527.79 397.62 525.15
  C 396.94 523.52 397.01 522.00 396.74 520.28
  L 396.96 520.66
  A 0.96 0.96 0.0 0 0 398.76 520.14
  L 398.14 505.99
  A 1.00 0.99 -11.4 0 1 398.80 505.00
  Q 399.78 504.66 400.45 505.29
  Q 400.95 505.76 402.46 506.27
  Q 402.69 506.34 402.84 507.32
  A 2.86 2.86 0.0 0 0 405.11 509.68
  Q 406.59 509.98 407.61 511.21
  Q 407.93 511.58 407.86 512.06
  Q 407.77 512.71 408.08 513.23
  Q 408.27 513.57 408.36 513.19
  Q 408.82 511.08 406.89 509.57
  Z"
/>
<path fill="#cadae4" d="
  M 422.40 505.04
  Q 422.42 506.14 422.79 506.98
  Q 422.70 510.11 423.83 512.78
  Q 423.87 512.88 423.69 512.96
  Q 423.57 513.02 423.65 513.13
  Q 424.47 514.22 425.94 513.88
  A 1.14 1.11 -33.9 0 1 426.82 514.04
  Q 427.85 514.74 429.01 514.97
  Q 429.58 515.09 429.91 514.60
  Q 432.70 510.36 432.36 505.15
  C 433.43 507.79 433.87 510.60 434.99 513.01
  Q 439.83 523.52 447.16 533.61
  L 447.40 567.50
  A 0.83 0.83 0.0 0 0 448.24 568.33
  L 458.04 568.25
  A 0.62 0.62 0.0 0 1 458.66 568.86
  L 458.91 598.56
  C 443.48 588.79 430.60 578.25 419.15 564.00
  Q 407.09 548.58 399.55 530.56
  Q 399.76 530.15 400.01 530.01
  Q 400.54 529.70 400.75 530.28
  Q 401.05 531.15 400.88 532.02
  A 0.01 0.00 -38.0 0 1 400.87 532.02
  Q 400.96 530.88 401.66 530.00
  Q 402.07 529.49 401.43 529.59
  Q 400.42 529.74 400.15 529.00
  Q 399.78 527.99 400.65 527.24
  Q 401.02 526.91 400.94 526.42
  Q 400.66 524.61 399.65 523.05
  Q 399.60 522.98 399.62 523.07
  Q 399.74 523.55 399.23 523.16
  A 0.23 0.23 0.0 0 1 399.13 522.97
  C 399.10 519.40 398.11 515.79 401.24 513.33
  Q 401.64 513.01 401.64 512.50
  L 401.64 511.50
  Q 401.64 511.14 402.00 511.14
  L 402.46 511.14
  Q 402.80 511.14 402.81 511.47
  C 402.86 512.47 402.74 513.13 403.17 514.08
  Q 404.10 516.09 404.61 518.25
  Q 405.03 520.07 407.41 520.77
  Q 407.86 520.90 407.94 521.36
  L 408.77 526.75
  A 0.94 0.90 62.9 0 0 410.33 527.29
  Q 410.37 527.25 410.52 526.93
  Q 410.61 526.76 410.62 526.55
  Q 410.71 524.79 411.08 523.06
  Q 411.16 522.70 411.37 522.51
  Q 411.48 522.41 411.60 522.32
  Q 411.90 522.12 411.88 521.76
  Q 411.81 520.72 412.82 520.17
  Q 413.26 519.93 413.38 519.44
  Q 413.47 519.06 413.38 518.56
  Q 413.30 518.09 413.41 517.63
  Q 414.12 514.40 413.45 511.03
  L 414.47 507.50
  L 415.02 525.47
  A 3.05 3.05 0.0 0 0 417.79 528.42
  L 418.50 528.49
  Q 422.37 528.85 422.37 524.96
  L 422.40 505.04
  Z
  M 402.4768 534.2989
  A 1.48 0.63 87.8 0 0 403.0495 532.7958
  A 1.48 0.63 87.8 0 0 402.3632 531.3411
  A 1.48 0.63 87.8 0 0 401.7905 532.8442
  A 1.48 0.63 87.8 0 0 402.4768 534.2989
  Z"
/>
<path fill="#1275b0" d="
  M 406.24 506.70
  Q 405.27 506.75 404.51 506.17
  Q 404.05 505.82 404.62 505.88
  Q 405.58 505.97 406.24 506.70
  Z"
/>
<path fill="#1275b0" d="
  M 406.24 506.70
  Q 407.42 507.55 408.69 507.72
  Q 409.20 507.78 409.31 508.29
  L 409.40 508.73
  Q 409.52 509.28 409.13 508.89
  L 408.59 508.35
  Q 408.25 508.01 407.81 507.84
  Q 406.97 507.49 406.24 506.70
  Z"
/>
<path fill="#1275b0" d="
  M 408.97 510.54
  Q 407.41 509.31 406.89 509.57
  Q 405.41 509.19 403.59 507.99
  Q 403.14 507.69 403.20 507.25
  Q 403.25 506.77 403.59 507.11
  L 404.22 507.73
  Q 404.59 508.10 405.11 508.12
  Q 407.77 508.19 408.97 510.54
  Z"
/>
<path fill="#102944" d="
  M 783.36 583.30
  C 775.16 605.87 763.74 627.83 749.51 647.21
  Q 728.57 675.74 701.46 698.70
  C 691.10 707.48 679.62 714.64 667.94 722.02
  Q 662.16 725.68 657.36 728.23
  C 623.61 746.13 586.04 759.03 547.95 763.15
  Q 538.79 764.14 528.00 764.17
  C 515.87 764.21 503.30 764.51 491.71 763.34
  C 475.95 761.74 462.49 758.53 448.02 754.97
  Q 443.87 753.94 438.14 751.94
  C 433.78 750.42 429.08 749.16 425.01 747.62
  Q 416.91 744.54 408.87 741.28
  C 400.86 738.04 393.34 734.20 385.76 730.22
  Q 383.13 728.85 381.85 726.26
  Q 381.62 725.80 381.76 725.32
  Q 382.54 722.58 384.39 720.89
  Q 396.25 710.01 407.35 698.35
  C 409.09 696.53 410.83 696.32 413.19 697.39
  C 421.21 701.01 426.96 704.53 437.10 708.25
  Q 445.02 711.14 452.06 713.18
  C 487.44 723.38 522.59 726.57 560.42 719.80
  C 592.90 713.98 625.05 702.08 652.61 683.79
  Q 669.15 672.82 680.01 663.24
  Q 687.63 656.50 699.69 643.56
  C 713.14 629.13 723.96 613.13 732.85 595.58
  Q 735.19 590.96 741.35 576.80
  Q 746.21 565.64 749.26 553.83
  C 750.55 548.81 751.98 544.41 752.93 538.97
  Q 753.85 533.65 755.58 528.46
  Q 756.14 528.51 756.52 527.62
  Q 756.79 527.02 757.01 527.63
  Q 757.58 529.14 756.89 530.76
  Q 756.62 531.43 757.12 531.91
  Q 757.32 532.12 757.56 531.96
  Q 757.91 531.74 758.29 532.03
  A 0.11 0.10 43.2 0 1 758.30 532.19
  L 758.12 532.38
  Q 758.02 532.48 758.06 532.51
  Q 759.21 533.51 759.48 534.94
  Q 759.57 535.40 759.87 535.77
  Q 761.90 538.24 760.81 541.39
  A 0.33 0.33 0.0 0 1 760.27 541.52
  L 760.04 541.28
  A 0.43 0.42 54.3 0 0 759.57 541.20
  Q 758.94 541.48 759.10 542.27
  Q 759.39 543.69 759.10 544.86
  Q 758.98 545.33 759.47 545.38
  Q 759.76 545.40 759.90 545.82
  Q 760.03 546.21 759.74 546.51
  Q 759.40 546.84 759.13 547.19
  A 0.19 0.15 -38.0 0 0 759.11 547.27
  L 759.16 548.84
  A 0.46 0.45 61.4 0 0 759.99 549.09
  Q 760.38 548.51 760.88 548.20
  A 0.72 0.71 -32.4 0 1 761.86 548.41
  Q 763.74 551.26 764.11 554.75
  Q 764.17 555.30 764.54 555.72
  Q 765.46 556.74 765.47 558.13
  Q 765.47 558.64 765.77 559.04
  L 767.09 560.80
  Q 767.30 561.08 767.64 561.15
  C 768.39 561.32 768.87 561.79 769.46 562.24
  Q 769.86 562.54 769.79 563.14
  Q 769.75 563.55 769.97 563.90
  C 771.59 566.49 772.55 569.35 774.68 571.61
  Q 775.78 572.78 775.90 573.77
  C 776.08 575.26 774.73 576.59 774.91 577.31
  Q 775.02 577.77 775.80 577.78
  A 0.48 0.48 0.0 0 1 776.19 578.52
  L 775.57 579.42
  Q 775.29 579.84 775.77 580.00
  Q 777.11 580.41 777.73 581.55
  Q 777.93 581.93 778.36 581.88
  Q 779.28 581.76 779.84 582.49
  A 0.69 0.69 0.0 0 0 781.03 582.32
  Q 781.22 581.83 781.72 581.87
  Q 782.23 581.92 782.36 582.41
  Q 782.56 583.17 783.36 583.30
  Z"
/>
<ellipse fill="#1275b0" cx="0.00" cy="0.00" transform="translate(402.42,532.82) rotate(87.8)" rx="1.48" ry="0.63"/>
<path fill="#cadae4" d="
  M 504.21 591.04
  L 504.40 614.59
  A 0.35 0.34 -25.1 0 1 504.31 614.82
  Q 504.19 614.97 504.07 615.01
  Q 494.44 612.90 486.98 610.58
  Q 476.34 607.27 466.41 602.27
  L 466.79 575.13
  Q 477.47 581.24 486.14 584.58
  Q 491.72 586.74 504.21 591.04
  Z"
/>
<path fill="#cadae4" d="
  M 341.14 618.53
  Q 340.81 619.42 340.25 620.01
  Q 338.91 620.01 338.02 619.38
  L 341.14 618.53
  Z"
/>
<path fill="#1275b0" d="
  M 338.02 619.38
  Q 338.91 620.01 340.25 620.01
  Q 340.39 621.13 340.81 621.42
  Q 345.93 624.88 347.19 626.31
  Q 351.46 631.18 355.01 633.94
  Q 357.75 638.32 359.66 639.84
  Q 362.89 642.39 365.83 645.22
  Q 358.75 653.46 350.82 660.36
  L 334.85 643.66
  A 1.13 1.12 -44.1 0 0 333.24 643.64
  C 311.42 665.10 290.11 687.16 268.28 708.78
  Q 251.76 725.13 235.43 741.68
  Q 230.26 746.92 228.09 753.29
  Q 227.91 753.82 227.36 753.87
  L 224.51 754.12
  Q 224.13 754.16 224.10 754.54
  Q 224.08 754.83 223.74 754.81
  Q 215.43 754.48 206.36 751.40
  C 207.12 744.59 209.89 738.57 213.70 732.94
  Q 216.43 728.92 222.50 723.19
  Q 238.84 707.76 255.03 692.18
  C 265.47 682.13 276.50 670.35 287.60 659.73
  C 299.04 648.78 309.02 638.39 319.60 627.60
  Q 327.32 619.73 338.02 619.38
  Z"
/>
<path fill="#153857" d="
  M 350.82 660.36
  Q 350.80 660.72 350.49 661.16
  A 0.89 0.89 0.0 0 0 350.54 662.26
  L 356.82 669.39
  Q 357.36 670.01 356.80 670.61
  Q 342.42 686.12 328.09 700.95
  C 309.18 720.51 288.72 740.24 273.83 755.58
  Q 270.39 759.13 268.21 761.30
  C 261.71 767.78 256.64 776.71 246.37 776.51
  C 240.25 776.39 237.13 773.52 232.75 769.49
  Q 231.23 768.09 228.49 769.21
  C 226.82 769.89 223.96 769.56 221.89 769.98
  Q 215.00 771.40 207.83 769.21
  Q 205.06 760.33 206.36 751.40
  Q 215.43 754.48 223.74 754.81
  Q 224.08 754.83 224.10 754.54
  Q 224.13 754.16 224.51 754.12
  L 227.36 753.87
  Q 227.91 753.82 228.09 753.29
  Q 230.26 746.92 235.43 741.68
  Q 251.76 725.13 268.28 708.78
  C 290.11 687.16 311.42 665.10 333.24 643.64
  A 1.13 1.12 -44.1 0 1 334.85 643.66
  L 350.82 660.36
  Z"
/>
</svg>
