<?xml version="1.0" encoding="UTF-8" standalone="no"?>
<!DOCTYPE svg PUBLIC "-//W3C//DTD SVG 1.1//EN" "http://www.w3.org/Graphics/SVG/1.1/DTD/svg11.dtd">
<svg xmlns="http://www.w3.org/2000/svg" version="1.1" viewBox="0.00 0.00 1024.00 1024.00">
<g stroke-width="2.00" fill="none" stroke-linecap="butt">
<path stroke="#8a9cab" vector-effect="non-scaling-stroke" d="
  M 226.91 244.22
  Q 223.46 249.62 220.22 258.01
  C 208.67 287.94 210.85 319.38 226.56 347.42
  A 0.82 0.81 54.1 0 0 227.83 347.63
  L 237.37 338.79
  A 1.85 1.85 0.0 0 0 237.75 336.58
  C 224.89 312.13 225.01 281.24 237.31 256.63
  Q 249.25 232.72 272.74 218.49
  C 307.27 197.55 352.57 204.43 379.69 234.29
  Q 404.79 261.92 403.02 299.83
  C 401.82 325.67 390.36 349.40 369.45 364.70
  C 342.49 384.43 307.91 387.60 278.46 372.48
  A 0.94 0.94 0.0 0 0 277.36 372.65
  L 268.42 381.45
  A 1.71 1.71 0.0 0 0 268.81 384.17
  C 294.94 398.29 324.28 400.61 352.05 390.28
  C 382.26 379.06 405.19 355.90 414.12 324.71
  C 426.85 280.28 409.28 231.55 369.55 206.97"
/>
<path stroke="#8cabc0" vector-effect="non-scaling-stroke" d="
  M 369.55 206.97
  C 318.85 175.85 256.53 194.57 226.91 244.22"
/>
<path stroke="#17476c" vector-effect="non-scaling-stroke" d="
  M 369.55 206.97
  Q 368.74 207.44 367.94 207.40
  Q 367.58 207.38 367.59 207.74
  Q 367.60 208.03 367.74 208.28
  Q 367.97 208.72 367.67 209.10
  Q 367.38 209.46 366.75 209.35
  Q 364.29 208.93 362.01 207.82
  Q 361.98 207.80 361.96 207.84
  Q 361.93 207.90 361.73 208.01
  A 0.39 0.37 -34.6 0 1 361.28 207.94
  C 360.46 207.08 359.46 207.43 358.57 207.21
  Q 357.55 206.96 356.55 206.71
  C 354.95 206.32 353.52 205.22 351.80 204.89
  Q 350.87 204.71 349.83 204.22
  C 348.25 203.48 346.11 203.57 344.77 203.14
  C 306.10 190.93 266.81 204.70 241.41 235.65
  Q 239.42 238.07 232.75 247.86
  Q 232.48 248.26 232.00 248.24
  L 229.14 248.07
  Q 228.63 248.04 228.38 247.59
  Q 227.97 246.85 228.10 246.07
  Q 228.19 245.53 227.74 245.20
  Q 227.26 244.85 226.91 244.22"
/>
<path stroke="#8a9cab" vector-effect="non-scaling-stroke" d="
  M 263.63 327.85
  L 265.71 331.05
  Q 266.00 331.51 265.62 331.90
  L 252.72 344.91"
/>
<path stroke="#88b9d7" vector-effect="non-scaling-stroke" d="
  M 252.72 344.91
  Q 248.63 344.51 246.22 346.95
  Q 228.30 365.17 209.79 382.78
  Q 208.57 383.94 207.21 386.01"
/>
<path stroke="#8cabc0" vector-effect="non-scaling-stroke" d="
  M 207.21 386.01
  Q 203.86 391.18 205.31 397.84"
/>
<path stroke="#8a9cab" vector-effect="non-scaling-stroke" d="
  M 205.31 397.84
  C 208.47 410.42 222.02 412.77 230.79 403.80
  Q 245.57 388.70 260.59 373.83
  C 263.90 370.55 267.39 367.46 269.54 363.23
  Q 270.60 361.14 272.02 359.63
  Q 276.99 354.34 281.97 349.39
  A 1.37 1.36 -53.0 0 1 283.60 349.16
  C 287.14 351.16 290.84 353.46 294.36 354.95
  C 319.71 365.70 349.89 359.47 369.16 339.78
  Q 390.52 317.96 387.87 285.22"
/>
<path stroke="#8cabc0" vector-effect="non-scaling-stroke" d="
  M 387.87 285.22
  Q 386.66 273.11 381.45 262.62"
/>
<path stroke="#88b9d7" vector-effect="non-scaling-stroke" d="
  M 381.45 262.62
  C 360.92 219.78 304.00 210.36 271.73 246.21
  C 251.70 268.46 247.96 302.07 263.63 327.85"
/>
<path stroke="#156598" vector-effect="non-scaling-stroke" d="
  M 381.45 262.62
  L 374.79 265.20"
/>
<path stroke="#135683" vector-effect="non-scaling-stroke" d="
  M 374.79 265.20
  C 355.92 229.36 308.72 218.96 279.54 248.80
  C 259.82 268.98 255.54 298.30 269.52 323.27
  Q 269.80 323.77 269.33 324.08
  L 263.63 327.85"
/>
<path stroke="#17476c" vector-effect="non-scaling-stroke" d="
  M 374.79 265.20
  Q 379.25 274.70 380.76 284.94
  A 1.49 1.49 0.0 0 0 382.40 286.20
  Q 383.31 286.10 383.70 285.89
  Q 384.00 285.72 384.33 285.76
  Q 386.18 285.98 387.87 285.22"
/>
<path stroke="#17476c" vector-effect="non-scaling-stroke" d="
  M 205.31 397.84
  L 211.47 397.10
  A 1.14 1.12 86.1 0 0 212.46 395.95
  C 212.29 389.76 217.74 386.26 221.57 381.92"
/>
<path stroke="#135683" vector-effect="non-scaling-stroke" d="
  M 221.57 381.92
  L 250.08 353.39
  A 0.68 0.67 -43.9 0 1 251.05 353.40
  L 255.67 358.34
  A 1.49 1.49 0.0 0 0 257.70 358.48
  L 262.69 354.40"
/>
<path stroke="#8a9cab" vector-effect="non-scaling-stroke" d="
  M 262.69 354.40
  Q 263.51 356.13 264.54 356.17
  Q 265.20 356.20 266.29 355.08
  Q 271.12 350.11 275.93 344.88
  A 1.47 1.47 0.0 0 0 275.87 342.82
  L 271.37 338.51
  Q 270.28 337.46 269.23 338.54
  L 258.16 349.81"
/>
<path stroke="#135683" vector-effect="non-scaling-stroke" d="
  M 258.16 349.81
  L 252.72 344.91"
/>
<path stroke="#88b9d7" vector-effect="non-scaling-stroke" d="
  M 262.69 354.40
  Q 259.67 352.27 258.16 349.81"
/>
<path stroke="#156598" vector-effect="non-scaling-stroke" d="
  M 221.57 381.92
  L 210.41 386.81
  Q 210.04 386.97 209.63 386.90
  Q 208.41 386.66 207.21 386.01"
/>
<path stroke="#8a9cab" vector-effect="non-scaling-stroke" d="
  M 271.95 279.87
  Q 268.80 291.82 271.54 304.52"
/>
<path stroke="#6f899e" vector-effect="non-scaling-stroke" d="
  M 271.54 304.52
  C 273.62 316.20 281.53 327.19 290.82 334.13"
/>
<path stroke="#17476c" vector-effect="non-scaling-stroke" d="
  M 290.82 334.13
  C 288.49 335.17 288.34 336.74 287.23 338.43
  A 2.13 2.12 33.5 0 0 287.83 341.36
  C 296.29 347.04 305.63 350.49 316.06 351.07
  C 330.82 351.89 345.17 348.08 357.13 339.09
  C 365.31 332.94 372.59 323.99 375.80 314.50
  C 377.69 308.91 382.42 293.18 377.24 291.89
  A 0.91 0.91 0.0 0 0 376.34 292.15
  L 371.94 296.77"
/>
<path stroke="#6f899e" vector-effect="non-scaling-stroke" d="
  M 371.94 296.77
  C 372.40 282.95 369.94 271.36 361.53 260.14
  Q 361.10 259.57 361.10 260.29
  L 361.21 277.18"
/>
<path stroke="#8a9cab" vector-effect="non-scaling-stroke" d="
  M 361.21 277.18
  L 361.08 287.23
  A 0.60 0.59 -89.0 0 1 360.48 287.82
  L 357.76 287.78
  Q 357.28 287.77 357.28 288.24
  L 357.21 300.77
  Q 357.21 301.99 355.98 302.00
  L 355.68 302.01
  A 0.59 0.59 0.0 0 1 355.09 301.43
  L 354.90 288.80
  A 0.85 0.84 -0.3 0 0 354.05 287.97
  L 351.31 287.99
  Q 350.74 288.00 350.74 287.42
  L 350.58 266.41"
/>
<path stroke="#6f899e" vector-effect="non-scaling-stroke" d="
  M 350.58 266.41
  L 350.56 250.94
  A 2.39 2.37 -73.9 0 0 349.46 248.93
  C 317.87 228.89 281.35 245.18 271.95 279.87"
/>
<path stroke="#e4edf2" vector-effect="non-scaling-stroke" d="
  M 350.58 266.41
  Q 346.21 261.78 342.80 259.67
  Q 325.31 248.81 306.07 255.47
  Q 305.19 255.77 305.22 254.85
  C 305.34 250.54 301.06 250.22 298.75 252.20
  C 288.97 260.56 282.29 269.38 280.05 282.01"
/>
<path stroke="#6f899e" vector-effect="non-scaling-stroke" d="
  M 280.05 282.01
  L 275.25 282.12"
/>
<path stroke="#e4edf2" vector-effect="non-scaling-stroke" d="
  M 275.25 282.12
  Q 274.15 279.63 271.95 279.87"
/>
<path stroke="#e4edf2" vector-effect="non-scaling-stroke" d="
  M 361.21 277.18
  Q 363.62 280.71 363.88 284.75
  C 364.18 289.40 364.21 296.79 363.15 301.86
  Q 359.46 319.50 344.86 328.87
  Q 335.42 334.92 322.22 334.77"
/>
<path stroke="#8a9cab" vector-effect="non-scaling-stroke" d="
  M 322.22 334.77
  L 322.11 280.37
  A 0.39 0.39 0.0 0 0 321.72 279.98
  L 312.28 279.96
  Q 311.87 279.96 311.87 280.37
  L 311.89 334.02"
/>
<path stroke="#e4edf2" vector-effect="non-scaling-stroke" d="
  M 311.89 334.02
  Q 304.63 332.74 298.05 328.37"
/>
<path stroke="#8a9cab" vector-effect="non-scaling-stroke" d="
  M 298.05 328.37
  Q 297.94 327.66 298.10 326.80
  A 0.67 0.67 0.0 0 1 298.76 326.25
  L 301.23 326.27
  A 0.76 0.76 0.0 0 0 301.99 325.51
  L 302.01 275.19
  A 0.55 0.55 0.0 0 0 301.44 274.64
  L 298.50 274.75
  Q 297.99 274.76 297.99 274.25
  L 298.11 262.69
  Q 298.13 261.35 297.22 262.33
  L 296.15 263.46
  A 3.34 3.33 66.1 0 0 295.26 265.78
  L 295.40 274.29
  A 0.45 0.44 89.4 0 1 294.96 274.75
  L 292.24 274.74
  Q 291.05 274.74 291.05 275.93
  L 291.14 311.71"
/>
<path stroke="#e4edf2" vector-effect="non-scaling-stroke" d="
  M 291.14 311.71
  Q 291.09 312.47 290.84 312.44
  A 1.85 1.47 76.9 0 1 289.58 311.44
  L 286.62 305.45
  A 1.96 1.79 -42.6 0 0 283.37 305.46
  Q 283.18 305.75 282.29 305.19"
/>
<path stroke="#8a9cab" vector-effect="non-scaling-stroke" d="
  M 282.29 305.19
  L 282.16 299.57
  Q 282.15 299.00 282.71 299.00
  L 284.57 299.00
  Q 285.13 299.00 285.13 298.43
  L 285.00 282.66
  Q 285.00 282.09 284.43 282.08
  L 280.05 282.01"
/>
<path stroke="#8a9cab" vector-effect="non-scaling-stroke" d="
  M 275.25 282.12
  L 275.06 298.29
  A 0.68 0.68 0.0 0 0 275.72 298.98
  L 279.23 299.06
  Q 279.82 299.07 279.83 299.66
  L 279.93 303.71"
/>
<path stroke="#e4edf2" vector-effect="non-scaling-stroke" d="
  M 279.93 303.71
  Q 279.07 305.10 278.22 303.90
  Q 277.94 303.51 277.50 303.31
  Q 274.27 301.90 271.54 304.52"
/>
<path stroke="#6f899e" vector-effect="non-scaling-stroke" d="
  M 282.29 305.19
  L 282.08 311.18
  Q 282.05 312.13 281.10 312.16
  L 280.70 312.17
  A 0.61 0.61 0.0 0 1 280.08 311.57
  L 279.93 303.71"
/>
<path stroke="#7198b3" vector-effect="non-scaling-stroke" d="
  M 371.94 296.77
  Q 370.35 316.63 355.50 330.26
  Q 341.58 343.03 322.29 343.43"
/>
<path stroke="#6f899e" vector-effect="non-scaling-stroke" d="
  M 322.29 343.43
  L 322.22 334.77"
/>
<path stroke="#6f899e" vector-effect="non-scaling-stroke" d="
  M 298.05 328.37
  L 297.91 338.32"
/>
<path stroke="#17476c" vector-effect="non-scaling-stroke" d="
  M 297.91 338.32
  Q 295.65 338.45 295.40 336.85"
/>
<path stroke="#6f899e" vector-effect="non-scaling-stroke" d="
  M 295.40 336.85
  L 295.19 326.70
  Q 295.18 326.25 294.73 326.24
  L 291.76 326.24
  A 0.52 0.51 89.4 0 1 291.25 325.73
  L 291.14 311.71"
/>
<path stroke="#17476c" vector-effect="non-scaling-stroke" d="
  M 322.29 343.43
  Q 317.37 344.93 311.82 343.05"
/>
<path stroke="#6f899e" vector-effect="non-scaling-stroke" d="
  M 311.82 343.05
  L 311.89 334.02"
/>
<path stroke="#7198b3" vector-effect="non-scaling-stroke" d="
  M 290.82 334.13
  Q 293.13 336.11 295.40 336.85"
/>
<path stroke="#7198b3" vector-effect="non-scaling-stroke" d="
  M 297.91 338.32
  Q 304.28 341.87 311.82 343.05"
/>
<path stroke="#8a9cab" vector-effect="non-scaling-stroke" d="
  M 336.99 288.46
  A 0.53 0.53 0.0 0 1 336.46 288.99
  L 332.59 289.00
  A 0.53 0.53 0.0 0 0 332.06 289.53
  L 332.11 325.69
  A 0.53 0.53 0.0 0 0 332.64 326.22
  L 336.44 326.24
  A 0.53 0.53 0.0 0 1 336.97 326.76
  L 337.01 330.53
  A 0.53 0.53 0.0 0 0 337.63 331.04
  L 339.03 330.82
  A 0.53 0.53 0.0 0 0 339.48 330.32
  L 339.61 326.88
  A 0.53 0.53 0.0 0 1 340.06 326.37
  L 343.08 325.92
  A 0.53 0.53 0.0 0 0 343.53 325.39
  L 343.52 289.55
  A 0.53 0.53 0.0 0 0 342.99 289.02
  L 339.80 289.04
  A 0.53 0.53 0.0 0 1 339.27 288.51
  L 339.31 280.25
  A 0.53 0.53 0.0 0 0 338.72 279.72
  L 337.48 279.84
  A 0.53 0.53 0.0 0 0 337.00 280.37
  L 336.99 288.46"
/>
</g>
<path fill="#ffffff" d="
  M 0.00 0.00
  L 1024.00 0.00
  L 1024.00 1024.00
  L 0.00 1024.00
  L 0.00 0.00
  Z
  M 226.91 244.22
  Q 223.46 249.62 220.22 258.01
  C 208.67 287.94 210.85 319.38 226.56 347.42
  A 0.82 0.81 54.1 0 0 227.83 347.63
  L 237.37 338.79
  A 1.85 1.85 0.0 0 0 237.75 336.58
  C 224.89 312.13 225.01 281.24 237.31 256.63
  Q 249.25 232.72 272.74 218.49
  C 307.27 197.55 352.57 204.43 379.69 234.29
  Q 404.79 261.92 403.02 299.83
  C 401.82 325.67 390.36 349.40 369.45 364.70
  C 342.49 384.43 307.91 387.60 278.46 372.48
  A 0.94 0.94 0.0 0 0 277.36 372.65
  L 268.42 381.45
  A 1.71 1.71 0.0 0 0 268.81 384.17
  C 294.94 398.29 324.28 400.61 352.05 390.28
  C 382.26 379.06 405.19 355.90 414.12 324.71
  C 426.85 280.28 409.28 231.55 369.55 206.97
  C 318.85 175.85 256.53 194.57 226.91 244.22
  Z
  M 263.63 327.85
  L 265.71 331.05
  Q 266.00 331.51 265.62 331.90
  L 252.72 344.91
  Q 248.63 344.51 246.22 346.95
  Q 228.30 365.17 209.79 382.78
  Q 208.57 383.94 207.21 386.01
  Q 203.86 391.18 205.31 397.84
  C 208.47 410.42 222.02 412.77 230.79 403.80
  Q 245.57 388.70 260.59 373.83
  C 263.90 370.55 267.39 367.46 269.54 363.23
  Q 270.60 361.14 272.02 359.63
  Q 276.99 354.34 281.97 349.39
  A 1.37 1.36 -53.0 0 1 283.60 349.16
  C 287.14 351.16 290.84 353.46 294.36 354.95
  C 319.71 365.70 349.89 359.47 369.16 339.78
  Q 390.52 317.96 387.87 285.22
  Q 386.66 273.11 381.45 262.62
  C 360.92 219.78 304.00 210.36 271.73 246.21
  C 251.70 268.46 247.96 302.07 263.63 327.85
  Z"
/>
<path fill="#185681" d="
  M 369.55 206.97
  Q 368.74 207.44 367.94 207.40
  Q 367.58 207.38 367.59 207.74
  Q 367.60 208.03 367.74 208.28
  Q 367.97 208.72 367.67 209.10
  Q 367.38 209.46 366.75 209.35
  Q 364.29 208.93 362.01 207.82
  Q 361.98 207.80 361.96 207.84
  Q 361.93 207.90 361.73 208.01
  A 0.39 0.37 -34.6 0 1 361.28 207.94
  C 360.46 207.08 359.46 207.43 358.57 207.21
  Q 357.55 206.96 356.55 206.71
  C 354.95 206.32 353.52 205.22 351.80 204.89
  Q 350.87 204.71 349.83 204.22
  C 348.25 203.48 346.11 203.57 344.77 203.14
  C 306.10 190.93 266.81 204.70 241.41 235.65
  Q 239.42 238.07 232.75 247.86
  Q 232.48 248.26 232.00 248.24
  L 229.14 248.07
  Q 228.63 248.04 228.38 247.59
  Q 227.97 246.85 228.10 246.07
  Q 228.19 245.53 227.74 245.20
  Q 227.26 244.85 226.91 244.22
  C 256.53 194.57 318.85 175.85 369.55 206.97
  Z"
/>
<path fill="#153857" d="
  M 369.55 206.97
  C 409.28 231.55 426.85 280.28 414.12 324.71
  C 405.19 355.90 382.26 379.06 352.05 390.28
  C 324.28 400.61 294.94 398.29 268.81 384.17
  A 1.71 1.71 0.0 0 1 268.42 381.45
  L 277.36 372.65
  A 0.94 0.94 0.0 0 1 278.46 372.48
  C 307.91 387.60 342.49 384.43 369.45 364.70
  C 390.36 349.40 401.82 325.67 403.02 299.83
  Q 404.79 261.92 379.69 234.29
  C 352.57 204.43 307.27 197.55 272.74 218.49
  Q 249.25 232.72 237.31 256.63
  C 225.01 281.24 224.89 312.13 237.75 336.58
  A 1.85 1.85 0.0 0 1 237.37 338.79
  L 227.83 347.63
  A 0.82 0.81 54.1 0 1 226.56 347.42
  C 210.85 319.38 208.67 287.94 220.22 258.01
  Q 223.46 249.62 226.91 244.22
  Q 227.26 244.85 227.74 245.20
  Q 228.19 245.53 228.10 246.07
  Q 227.97 246.85 228.38 247.59
  Q 228.63 248.04 229.14 248.07
  L 232.00 248.24
  Q 232.48 248.26 232.75 247.86
  Q 239.42 238.07 241.41 235.65
  C 266.81 204.70 306.10 190.93 344.77 203.14
  C 346.11 203.57 348.25 203.48 349.83 204.22
  Q 350.87 204.71 351.80 204.89
  C 353.52 205.22 354.95 206.32 356.55 206.71
  Q 357.55 206.96 358.57 207.21
  C 359.46 207.43 360.46 207.08 361.28 207.94
  A 0.39 0.37 -34.6 0 0 361.73 208.01
  Q 361.93 207.90 361.96 207.84
  Q 361.98 207.80 362.01 207.82
  Q 364.29 208.93 366.75 209.35
  Q 367.38 209.46 367.67 209.10
  Q 367.97 208.72 367.74 208.28
  Q 367.60 208.03 367.59 207.74
  Q 367.58 207.38 367.94 207.40
  Q 368.74 207.44 369.55 206.97
  Z"
/>
<path fill="#1173af" d="
  M 381.45 262.62
  L 374.79 265.20
  C 355.92 229.36 308.72 218.96 279.54 248.80
  C 259.82 268.98 255.54 298.30 269.52 323.27
  Q 269.80 323.77 269.33 324.08
  L 263.63 327.85
  C 247.96 302.07 251.70 268.46 271.73 246.21
  C 304.00 210.36 360.92 219.78 381.45 262.62
  Z"
/>
<path fill="#153857" d="
  M 374.79 265.20
  Q 379.25 274.70 380.76 284.94
  A 1.49 1.49 0.0 0 0 382.40 286.20
  Q 383.31 286.10 383.70 285.89
  Q 384.00 285.72 384.33 285.76
  Q 386.18 285.98 387.87 285.22
  Q 390.52 317.96 369.16 339.78
  C 349.89 359.47 319.71 365.70 294.36 354.95
  C 290.84 353.46 287.14 351.16 283.60 349.16
  A 1.37 1.36 -53.0 0 0 281.97 349.39
  Q 276.99 354.34 272.02 359.63
  Q 270.60 361.14 269.54 363.23
  C 267.39 367.46 263.90 370.55 260.59 373.83
  Q 245.57 388.70 230.79 403.80
  C 222.02 412.77 208.47 410.42 205.31 397.84
  L 211.47 397.10
  A 1.14 1.12 86.1 0 0 212.46 395.95
  C 212.29 389.76 217.74 386.26 221.57 381.92
  L 250.08 353.39
  A 0.68 0.67 -43.9 0 1 251.05 353.40
  L 255.67 358.34
  A 1.49 1.49 0.0 0 0 257.70 358.48
  L 262.69 354.40
  Q 263.51 356.13 264.54 356.17
  Q 265.20 356.20 266.29 355.08
  Q 271.12 350.11 275.93 344.88
  A 1.47 1.47 0.0 0 0 275.87 342.82
  L 271.37 338.51
  Q 270.28 337.46 269.23 338.54
  L 258.16 349.81
  L 252.72 344.91
  L 265.62 331.90
  Q 266.00 331.51 265.71 331.05
  L 263.63 327.85
  L 269.33 324.08
  Q 269.80 323.77 269.52 323.27
  C 255.54 298.30 259.82 268.98 279.54 248.80
  C 308.72 218.96 355.92 229.36 374.79 265.20
  Z
  M 271.95 279.87
  Q 268.80 291.82 271.54 304.52
  C 273.62 316.20 281.53 327.19 290.82 334.13
  C 288.49 335.17 288.34 336.74 287.23 338.43
  A 2.13 2.12 33.5 0 0 287.83 341.36
  C 296.29 347.04 305.63 350.49 316.06 351.07
  C 330.82 351.89 345.17 348.08 357.13 339.09
  C 365.31 332.94 372.59 323.99 375.80 314.50
  C 377.69 308.91 382.42 293.18 377.24 291.89
  A 0.91 0.91 0.0 0 0 376.34 292.15
  L 371.94 296.77
  C 372.40 282.95 369.94 271.36 361.53 260.14
  Q 361.10 259.57 361.10 260.29
  L 361.21 277.18
  L 361.08 287.23
  A 0.60 0.59 -89.0 0 1 360.48 287.82
  L 357.76 287.78
  Q 357.28 287.77 357.28 288.24
  L 357.21 300.77
  Q 357.21 301.99 355.98 302.00
  L 355.68 302.01
  A 0.59 0.59 0.0 0 1 355.09 301.43
  L 354.90 288.80
  A 0.85 0.84 -0.3 0 0 354.05 287.97
  L 351.31 287.99
  Q 350.74 288.00 350.74 287.42
  L 350.58 266.41
  L 350.56 250.94
  A 2.39 2.37 -73.9 0 0 349.46 248.93
  C 317.87 228.89 281.35 245.18 271.95 279.87
  Z"
/>
<path fill="#c9dae4" d="
  M 350.58 266.41
  Q 346.21 261.78 342.80 259.67
  Q 325.31 248.81 306.07 255.47
  Q 305.19 255.77 305.22 254.85
  C 305.34 250.54 301.06 250.22 298.75 252.20
  C 288.97 260.56 282.29 269.38 280.05 282.01
  L 275.25 282.12
  Q 274.15 279.63 271.95 279.87
  C 281.35 245.18 317.87 228.89 349.46 248.93
  A 2.39 2.37 -73.9 0 1 350.56 250.94
  L 350.58 266.41
  Z"
/>
<path fill="#ffffff" d="
  M 350.58 266.41
  L 350.74 287.42
  Q 350.74 288.00 351.31 287.99
  L 354.05 287.97
  A 0.85 0.84 -0.3 0 1 354.90 288.80
  L 355.09 301.43
  A 0.59 0.59 0.0 0 0 355.68 302.01
  L 355.98 302.00
  Q 357.21 301.99 357.21 300.77
  L 357.28 288.24
  Q 357.28 287.77 357.76 287.78
  L 360.48 287.82
  A 0.60 0.59 -89.0 0 0 361.08 287.23
  L 361.21 277.18
  Q 363.62 280.71 363.88 284.75
  C 364.18 289.40 364.21 296.79 363.15 301.86
  Q 359.46 319.50 344.86 328.87
  Q 335.42 334.92 322.22 334.77
  L 322.11 280.37
  A 0.39 0.39 0.0 0 0 321.72 279.98
  L 312.28 279.96
  Q 311.87 279.96 311.87 280.37
  L 311.89 334.02
  Q 304.63 332.74 298.05 328.37
  Q 297.94 327.66 298.10 326.80
  A 0.67 0.67 0.0 0 1 298.76 326.25
  L 301.23 326.27
  A 0.76 0.76 0.0 0 0 301.99 325.51
  L 302.01 275.19
  A 0.55 0.55 0.0 0 0 301.44 274.64
  L 298.50 274.75
  Q 297.99 274.76 297.99 274.25
  L 298.11 262.69
  Q 298.13 261.35 297.22 262.33
  L 296.15 263.46
  A 3.34 3.33 66.1 0 0 295.26 265.78
  L 295.40 274.29
  A 0.45 0.44 89.4 0 1 294.96 274.75
  L 292.24 274.74
  Q 291.05 274.74 291.05 275.93
  L 291.14 311.71
  Q 291.09 312.47 290.84 312.44
  A 1.85 1.47 76.9 0 1 289.58 311.44
  L 286.62 305.45
  A 1.96 1.79 -42.6 0 0 283.37 305.46
  Q 283.18 305.75 282.29 305.19
  L 282.16 299.57
  Q 282.15 299.00 282.71 299.00
  L 284.57 299.00
  Q 285.13 299.00 285.13 298.43
  L 285.00 282.66
  Q 285.00 282.09 284.43 282.08
  L 280.05 282.01
  C 282.29 269.38 288.97 260.56 298.75 252.20
  C 301.06 250.22 305.34 250.54 305.22 254.85
  Q 305.19 255.77 306.07 255.47
  Q 325.31 248.81 342.80 259.67
  Q 346.21 261.78 350.58 266.41
  Z
  M 336.99 288.46
  A 0.53 0.53 0.0 0 1 336.46 288.99
  L 332.59 289.00
  A 0.53 0.53 0.0 0 0 332.06 289.53
  L 332.11 325.69
  A 0.53 0.53 0.0 0 0 332.64 326.22
  L 336.44 326.24
  A 0.53 0.53 0.0 0 1 336.97 326.76
  L 337.01 330.53
  A 0.53 0.53 0.0 0 0 337.63 331.04
  L 339.03 330.82
  A 0.53 0.53 0.0 0 0 339.48 330.32
  L 339.61 326.88
  A 0.53 0.53 0.0 0 1 340.06 326.37
  L 343.08 325.92
  A 0.53 0.53 0.0 0 0 343.53 325.39
  L 343.52 289.55
  A 0.53 0.53 0.0 0 0 342.99 289.02
  L 339.80 289.04
  A 0.53 0.53 0.0 0 1 339.27 288.51
  L 339.31 280.25
  A 0.53 0.53 0.0 0 0 338.72 279.72
  L 337.48 279.84
  A 0.53 0.53 0.0 0 0 337.00 280.37
  L 336.99 288.46
  Z"
/>
<path fill="#c9dae4" d="
  M 371.94 296.77
  Q 370.35 316.63 355.50 330.26
  Q 341.58 343.03 322.29 343.43
  L 322.22 334.77
  Q 335.42 334.92 344.86 328.87
  Q 359.46 319.50 363.15 301.86
  C 364.21 296.79 364.18 289.40 363.88 284.75
  Q 363.62 280.71 361.21 277.18
  L 361.10 260.29
  Q 361.10 259.57 361.53 260.14
  C 369.94 271.36 372.40 282.95 371.94 296.77
  Z"
/>
<path fill="#153857" d="
  M 298.05 328.37
  L 297.91 338.32
  Q 295.65 338.45 295.40 336.85
  L 295.19 326.70
  Q 295.18 326.25 294.73 326.24
  L 291.76 326.24
  A 0.52 0.51 89.4 0 1 291.25 325.73
  L 291.14 311.71
  L 291.05 275.93
  Q 291.05 274.74 292.24 274.74
  L 294.96 274.75
  A 0.45 0.44 89.4 0 0 295.40 274.29
  L 295.26 265.78
  A 3.34 3.33 66.1 0 1 296.15 263.46
  L 297.22 262.33
  Q 298.13 261.35 298.11 262.69
  L 297.99 274.25
  Q 297.99 274.76 298.50 274.75
  L 301.44 274.64
  A 0.55 0.55 0.0 0 1 302.01 275.19
  L 301.99 325.51
  A 0.76 0.76 0.0 0 1 301.23 326.27
  L 298.76 326.25
  A 0.67 0.67 0.0 0 0 298.10 326.80
  Q 297.94 327.66 298.05 328.37
  Z"
/>
<path fill="#185681" d="
  M 381.45 262.62
  Q 386.66 273.11 387.87 285.22
  Q 386.18 285.98 384.33 285.76
  Q 384.00 285.72 383.70 285.89
  Q 383.31 286.10 382.40 286.20
  A 1.49 1.49 0.0 0 1 380.76 284.94
  Q 379.25 274.70 374.79 265.20
  L 381.45 262.62
  Z"
/>
<path fill="#153857" d="
  M 336.99 288.46
  L 337.00 280.37
  A 0.53 0.53 0.0 0 1 337.48 279.84
  L 338.72 279.72
  A 0.53 0.53 0.0 0 1 339.31 280.25
  L 339.27 288.51
  A 0.53 0.53 0.0 0 0 339.80 289.04
  L 342.99 289.02
  A 0.53 0.53 0.0 0 1 343.52 289.55
  L 343.53 325.39
  A 0.53 0.53 0.0 0 1 343.08 325.92
  L 340.06 326.37
  A 0.53 0.53 0.0 0 0 339.61 326.88
  L 339.48 330.32
  A 0.53 0.53 0.0 0 1 339.03 330.82
  L 337.63 331.04
  A 0.53 0.53 0.0 0 1 337.01 330.53
  L 336.97 326.76
  A 0.53 0.53 0.0 0 0 336.44 326.24
  L 332.64 326.22
  A 0.53 0.53 0.0 0 1 332.11 325.69
  L 332.06 289.53
  A 0.53 0.53 0.0 0 1 332.59 289.00
  L 336.46 288.99
  A 0.53 0.53 0.0 0 0 336.99 288.46
  Z"
/>
<path fill="#ffffff" d="
  M 271.95 279.87
  Q 274.15 279.63 275.25 282.12
  L 275.06 298.29
  A 0.68 0.68 0.0 0 0 275.72 298.98
  L 279.23 299.06
  Q 279.82 299.07 279.83 299.66
  L 279.93 303.71
  Q 279.07 305.10 278.22 303.90
  Q 277.94 303.51 277.50 303.31
  Q 274.27 301.90 271.54 304.52
  Q 268.80 291.82 271.95 279.87
  Z"
/>
<path fill="#153857" d="
  M 322.22 334.77
  L 322.29 343.43
  Q 317.37 344.93 311.82 343.05
  L 311.89 334.02
  L 311.87 280.37
  Q 311.87 279.96 312.28 279.96
  L 321.72 279.98
  A 0.39 0.39 0.0 0 1 322.11 280.37
  L 322.22 334.77
  Z"
/>
<path fill="#153857" d="
  M 280.05 282.01
  L 284.43 282.08
  Q 285.00 282.09 285.00 282.66
  L 285.13 298.43
  Q 285.13 299.00 284.57 299.00
  L 282.71 299.00
  Q 282.15 299.00 282.16 299.57
  L 282.29 305.19
  L 282.08 311.18
  Q 282.05 312.13 281.10 312.16
  L 280.70 312.17
  A 0.61 0.61 0.0 0 1 280.08 311.57
  L 279.93 303.71
  L 279.83 299.66
  Q 279.82 299.07 279.23 299.06
  L 275.72 298.98
  A 0.68 0.68 0.0 0 1 275.06 298.29
  L 275.25 282.12
  L 280.05 282.01
  Z"
/>
<path fill="#185681" d="
  M 290.82 334.13
  Q 293.13 336.11 295.40 336.85
  Q 295.65 338.45 297.91 338.32
  Q 304.28 341.87 311.82 343.05
  Q 317.37 344.93 322.29 343.43
  Q 341.58 343.03 355.50 330.26
  Q 370.35 316.63 371.94 296.77
  L 376.34 292.15
  A 0.91 0.91 0.0 0 1 377.24 291.89
  C 382.42 293.18 377.69 308.91 375.80 314.50
  C 372.59 323.99 365.31 332.94 357.13 339.09
  C 345.17 348.08 330.82 351.89 316.06 351.07
  C 305.63 350.49 296.29 347.04 287.83 341.36
  A 2.13 2.12 33.5 0 1 287.23 338.43
  C 288.34 336.74 288.49 335.17 290.82 334.13
  Z"
/>
<path fill="#c9dae4" d="
  M 279.93 303.71
  L 280.08 311.57
  A 0.61 0.61 0.0 0 0 280.70 312.17
  L 281.10 312.16
  Q 282.05 312.13 282.08 311.18
  L 282.29 305.19
  Q 283.18 305.75 283.37 305.46
  A 1.96 1.79 -42.6 0 1 286.62 305.45
  L 289.58 311.44
  A 1.85 1.47 76.9 0 0 290.84 312.44
  Q 291.09 312.47 291.14 311.71
  L 291.25 325.73
  A 0.52 0.51 89.4 0 0 291.76 326.24
  L 294.73 326.24
  Q 295.18 326.25 295.19 326.70
  L 295.40 336.85
  Q 293.13 336.11 290.82 334.13
  C 281.53 327.19 273.62 316.20 271.54 304.52
  Q 274.27 301.90 277.50 303.31
  Q 277.94 303.51 278.22 303.90
  Q 279.07 305.10 279.93 303.71
  Z"
/>
<path fill="#c9dae4" d="
  M 298.05 328.37
  Q 304.63 332.74 311.89 334.02
  L 311.82 343.05
  Q 304.28 341.87 297.91 338.32
  L 298.05 328.37
  Z"
/>
<path fill="#ffffff" d="
  M 262.69 354.40
  Q 259.67 352.27 258.16 349.81
  L 269.23 338.54
  Q 270.28 337.46 271.37 338.51
  L 275.87 342.82
  A 1.47 1.47 0.0 0 1 275.93 344.88
  Q 271.12 350.11 266.29 355.08
  Q 265.20 356.20 264.54 356.17
  Q 263.51 356.13 262.69 354.40
  Z"
/>
<path fill="#1173af" d="
  M 252.72 344.91
  L 258.16 349.81
  Q 259.67 352.27 262.69 354.40
  L 257.70 358.48
  A 1.49 1.49 0.0 0 1 255.67 358.34
  L 251.05 353.40
  A 0.68 0.67 -43.9 0 0 250.08 353.39
  L 221.57 381.92
  L 210.41 386.81
  Q 210.04 386.97 209.63 386.90
  Q 208.41 386.66 207.21 386.01
  Q 208.57 383.94 209.79 382.78
  Q 228.30 365.17 246.22 346.95
  Q 248.63 344.51 252.72 344.91
  Z"
/>
<path fill="#185681" d="
  M 221.57 381.92
  C 217.74 386.26 212.29 389.76 212.46 395.95
  A 1.14 1.12 86.1 0 1 211.47 397.10
  L 205.31 397.84
  Q 203.86 391.18 207.21 386.01
  Q 208.41 386.66 209.63 386.90
  Q 210.04 386.97 210.41 386.81
  L 221.57 381.92
  Z"
/>
</svg>
