<svg width="31" height="37" viewBox="0 0 31 37" fill="none" xmlns="http://www.w3.org/2000/svg">
<g id="Group">
<path id="Vector" d="M23.402 0.22306L12.3655 0.212551C10.7239 0.210988 9.38752 1.58179 9.38591 3.269L9.36552 24.6843C9.36391 26.3715 10.6977 27.7449 12.3393 27.7465L27.2227 27.7607C28.8643 27.7622 30.2007 26.3914 30.2023 24.7042L30.2189 7.2426L23.402 0.22306ZM27.2256 24.7115L12.3323 24.6973L12.3527 3.28199L21.2827 3.2905L21.2769 9.40918L27.2303 9.41485L27.2256 24.7115Z" fill="#7B8289"/>
<path id="Vector_2" d="M7.89114 4.80264L4.91447 4.7998L4.89116 29.2846C4.88955 30.9718 6.22328 32.3453 7.86491 32.3468L25.725 32.3638L25.7279 29.3045L7.86782 29.2875L7.89114 4.80264Z" fill="#7B8289"/>
<path id="Vector_3" d="M3.42675 9.38223L0.450058 9.37939L0.426744 33.8642C0.425137 35.5514 1.7589 36.9248 3.40052 36.9264L21.2606 36.9434L21.2635 33.8841L3.40344 33.8671L3.42675 9.38223Z" fill="#7B8289"/>
</g>
</svg>
