<svg width="31" height="32" viewBox="0 0 31 32" fill="none" xmlns="http://www.w3.org/2000/svg">
<g id="Group">
<path id="Vector" d="M30.8484 28.9535L22.6384 20.5299C24.3216 18.326 25.2439 15.6233 25.2367 12.7774C25.23 9.4131 23.9573 6.26109 21.6455 3.8907C19.3336 1.52031 16.2593 0.216406 12.9859 0.213289C9.72244 0.220346 6.64562 1.52856 4.33915 3.90471C2.03267 6.28087 0.763847 9.44063 0.760643 12.8049C0.75744 16.1691 2.04006 19.3212 4.35191 21.6915C6.66375 24.0619 9.7381 25.3658 13.0115 25.369C15.7409 25.3614 18.3328 24.439 20.4606 22.7436L28.6805 31.1773L30.8484 28.9535ZM6.51979 19.4677C4.78096 17.6874 3.82391 15.3183 3.82631 12.8078C3.81882 10.2871 4.77046 7.91987 6.50279 6.13267C8.23512 4.34547 10.5403 3.36176 12.9829 3.36409C15.4355 3.35626 17.7388 4.33419 19.4776 6.12469C21.2164 7.90503 22.1735 10.264 22.1711 12.7846C22.1786 15.3053 21.2269 17.6725 19.4946 19.4597C17.7622 21.2469 15.4571 22.2306 13.0144 22.2283C10.5718 22.226 8.25861 21.2481 6.51979 19.4677Z" fill="#A5ADC6"/>
</g>
</svg>
